<?xml version="1.0" standalone="no"?>
<!DOCTYPE svg PUBLIC "-//W3C//DTD SVG 1.1//EN" "http://www.w3.org/Graphics/SVG/1.1/DTD/svg11.dtd">
<svg xmlns:xlink="http://www.w3.org/1999/xlink" width="125.826ex" height="20.843ex" style="vertical-align: -9.838ex;" viewBox="0 -4738.1 54174.8 8973.9" xmlns="http://www.w3.org/2000/svg">
<defs>
<path stroke-width="10" id="E1-MJMATHI-78" d="M52 289Q59 331 106 386T222 442Q257 442 286 424T329 379Q371 442 430 442Q467 442 494 420T522 361Q522 332 508 314T481 292T458 288Q439 288 427 299T415 328Q415 374 465 391Q454 404 425 404Q412 404 406 402Q368 386 350 336Q290 115 290 78Q290 50 306 38T341 26Q378 26 414 59T463 140Q466 150 469 151T485 153H489Q504 153 504 145Q504 144 502 134Q486 77 440 33T333 -11Q263 -11 227 52Q186 -10 133 -10H127Q78 -10 57 16T35 71Q35 103 54 123T99 143Q142 143 142 101Q142 81 130 66T107 46T94 41L91 40Q91 39 97 36T113 29T132 26Q168 26 194 71Q203 87 217 139T245 247T261 313Q266 340 266 352Q266 380 251 392T217 404Q177 404 142 372T93 290Q91 281 88 280T72 278H58Q52 284 52 289Z"></path>
<path stroke-width="10" id="E1-MJMAIN-3A" d="M78 370Q78 394 95 412T138 430Q162 430 180 414T199 371Q199 346 182 328T139 310T96 327T78 370ZM78 60Q78 84 95 102T138 120Q162 120 180 104T199 61Q199 36 182 18T139 0T96 17T78 60Z"></path>
<path stroke-width="10" id="E1-MJMATHI-3C1" d="M58 -216Q25 -216 23 -186Q23 -176 73 26T127 234Q143 289 182 341Q252 427 341 441Q343 441 349 441T359 442Q432 442 471 394T510 276Q510 219 486 165T425 74T345 13T266 -10H255H248Q197 -10 165 35L160 41L133 -71Q108 -168 104 -181T92 -202Q76 -216 58 -216ZM424 322Q424 359 407 382T357 405Q322 405 287 376T231 300Q217 269 193 170L176 102Q193 26 260 26Q298 26 334 62Q367 92 389 158T418 266T424 322Z"></path>
<path stroke-width="10" id="E1-MJMAIN-28" d="M94 250Q94 319 104 381T127 488T164 576T202 643T244 695T277 729T302 750H315H319Q333 750 333 741Q333 738 316 720T275 667T226 581T184 443T167 250T184 58T225 -81T274 -167T316 -220T333 -241Q333 -250 318 -250H315H302L274 -226Q180 -141 137 -14T94 250Z"></path>
<path stroke-width="10" id="E1-MJMAIN-2202" d="M202 508Q179 508 169 520T158 547Q158 557 164 577T185 624T230 675T301 710L333 715H345Q378 715 384 714Q447 703 489 661T549 568T566 457Q566 362 519 240T402 53Q321 -22 223 -22Q123 -22 73 56Q42 102 42 148V159Q42 276 129 370T322 465Q383 465 414 434T455 367L458 378Q478 461 478 515Q478 603 437 639T344 676Q266 676 223 612Q264 606 264 572Q264 547 246 528T202 508ZM430 306Q430 372 401 400T333 428Q270 428 222 382Q197 354 183 323T150 221Q132 149 132 116Q132 21 232 21Q244 21 250 22Q327 35 374 112Q389 137 409 196T430 306Z"></path>
<path stroke-width="10" id="E1-MJMATHI-75" d="M21 287Q21 295 30 318T55 370T99 420T158 442Q204 442 227 417T250 358Q250 340 216 246T182 105Q182 62 196 45T238 27T291 44T328 78L339 95Q341 99 377 247Q407 367 413 387T427 416Q444 431 463 431Q480 431 488 421T496 402L420 84Q419 79 419 68Q419 43 426 35T447 26Q469 29 482 57T512 145Q514 153 532 153Q551 153 551 144Q550 139 549 130T540 98T523 55T498 17T462 -8Q454 -10 438 -10Q372 -10 347 46Q345 45 336 36T318 21T296 6T267 -6T233 -11Q189 -11 155 7Q103 38 103 113Q103 170 138 262T173 379Q173 380 173 381Q173 390 173 393T169 400T158 404H154Q131 404 112 385T82 344T65 302T57 280Q55 278 41 278H27Q21 284 21 287Z"></path>
<path stroke-width="10" id="E1-MJMATHI-74" d="M26 385Q19 392 19 395Q19 399 22 411T27 425Q29 430 36 430T87 431H140L159 511Q162 522 166 540T173 566T179 586T187 603T197 615T211 624T229 626Q247 625 254 615T261 596Q261 589 252 549T232 470L222 433Q222 431 272 431H323Q330 424 330 420Q330 398 317 385H210L174 240Q135 80 135 68Q135 26 162 26Q197 26 230 60T283 144Q285 150 288 151T303 153H307Q322 153 322 145Q322 142 319 133Q314 117 301 95T267 48T216 6T155 -11Q125 -11 98 4T59 56Q57 64 57 83V101L92 241Q127 382 128 383Q128 385 77 385H26Z"></path>
<path stroke-width="10" id="E1-MJMAIN-2B" d="M56 237T56 250T70 270H369V420L370 570Q380 583 389 583Q402 583 409 568V270H707Q722 262 722 250T707 230H409V-68Q401 -82 391 -82H389H387Q375 -82 369 -68V230H70Q56 237 56 250Z"></path>
<path stroke-width="10" id="E1-MJMATHI-79" d="M21 287Q21 301 36 335T84 406T158 442Q199 442 224 419T250 355Q248 336 247 334Q247 331 231 288T198 191T182 105Q182 62 196 45T238 27Q261 27 281 38T312 61T339 94Q339 95 344 114T358 173T377 247Q415 397 419 404Q432 431 462 431Q475 431 483 424T494 412T496 403Q496 390 447 193T391 -23Q363 -106 294 -155T156 -205Q111 -205 77 -183T43 -117Q43 -95 50 -80T69 -58T89 -48T106 -45Q150 -45 150 -87Q150 -107 138 -122T115 -142T102 -147L99 -148Q101 -153 118 -160T152 -167H160Q177 -167 186 -165Q219 -156 247 -127T290 -65T313 -9T321 21L315 17Q309 13 296 6T270 -6Q250 -11 231 -11Q185 -11 150 11T104 82Q103 89 103 113Q103 170 138 262T173 379Q173 380 173 381Q173 390 173 393T169 400T158 404H154Q131 404 112 385T82 344T65 302T57 280Q55 278 41 278H27Q21 284 21 287Z"></path>
<path stroke-width="10" id="E1-MJMATHI-7A" d="M347 338Q337 338 294 349T231 360Q211 360 197 356T174 346T162 335T155 324L153 320Q150 317 138 317Q117 317 117 325Q117 330 120 339Q133 378 163 406T229 440Q241 442 246 442Q271 442 291 425T329 392T367 375Q389 375 411 408T434 441Q435 442 449 442H462Q468 436 468 434Q468 430 463 420T449 399T432 377T418 358L411 349Q368 298 275 214T160 106L148 94L163 93Q185 93 227 82T290 71Q328 71 360 90T402 140Q406 149 409 151T424 153Q443 153 443 143Q443 138 442 134Q425 72 376 31T278 -11Q252 -11 232 6T193 40T155 57Q111 57 76 -3Q70 -11 59 -11H54H41Q35 -5 35 -2Q35 13 93 84Q132 129 225 214T340 322Q352 338 347 338Z"></path>
<path stroke-width="10" id="E1-MJMAIN-29" d="M60 749L64 750Q69 750 74 750H86L114 726Q208 641 251 514T294 250Q294 182 284 119T261 12T224 -76T186 -143T145 -194T113 -227T90 -246Q87 -249 86 -250H74Q66 -250 63 -250T58 -247T55 -238Q56 -237 66 -225Q221 -64 221 250T66 725Q56 737 55 738Q55 746 60 749Z"></path>
<path stroke-width="10" id="E1-MJSZ3-28" d="M701 -940Q701 -943 695 -949H664Q662 -947 636 -922T591 -879T537 -818T475 -737T412 -636T350 -511T295 -362T250 -186T221 17T209 251Q209 962 573 1361Q596 1386 616 1405T649 1437T664 1450H695Q701 1444 701 1441Q701 1436 681 1415T629 1356T557 1261T476 1118T400 927T340 675T308 359Q306 321 306 250Q306 -139 400 -430T690 -924Q701 -936 701 -940Z"></path>
<path stroke-width="10" id="E1-MJSZ3-29" d="M34 1438Q34 1446 37 1448T50 1450H56H71Q73 1448 99 1423T144 1380T198 1319T260 1238T323 1137T385 1013T440 864T485 688T514 485T526 251Q526 134 519 53Q472 -519 162 -860Q139 -885 119 -904T86 -936T71 -949H56Q43 -949 39 -947T34 -937Q88 -883 140 -813Q428 -430 428 251Q428 453 402 628T338 922T245 1146T145 1309T46 1425Q44 1427 42 1429T39 1433T36 1436L34 1438Z"></path>
<path stroke-width="10" id="E1-MJMAIN-3D" d="M56 347Q56 360 70 367H707Q722 359 722 347Q722 336 708 328L390 327H72Q56 332 56 347ZM56 153Q56 168 72 173H708Q722 163 722 153Q722 140 707 133H70Q56 140 56 153Z"></path>
<path stroke-width="10" id="E1-MJMAIN-2212" d="M84 237T84 250T98 270H679Q694 262 694 250T679 230H98Q84 237 84 250Z"></path>
<path stroke-width="10" id="E1-MJMATHI-70" d="M23 287Q24 290 25 295T30 317T40 348T55 381T75 411T101 433T134 442Q209 442 230 378L240 387Q302 442 358 442Q423 442 460 395T497 281Q497 173 421 82T249 -10Q227 -10 210 -4Q199 1 187 11T168 28L161 36Q160 35 139 -51T118 -138Q118 -144 126 -145T163 -148H188Q194 -155 194 -157T191 -175Q188 -187 185 -190T172 -194Q170 -194 161 -194T127 -193T65 -192Q-5 -192 -24 -194H-32Q-39 -187 -39 -183Q-37 -156 -26 -148H-6Q28 -147 33 -136Q36 -130 94 103T155 350Q156 355 156 364Q156 405 131 405Q109 405 94 377T71 316T59 280Q57 278 43 278H29Q23 284 23 287ZM178 102Q200 26 252 26Q282 26 310 49T356 107Q374 141 392 215T411 325V331Q411 405 350 405Q339 405 328 402T306 393T286 380T269 365T254 350T243 336T235 326L232 322Q232 321 229 308T218 264T204 212Q178 106 178 102Z"></path>
<path stroke-width="10" id="E1-MJMATHI-3BC" d="M58 -216Q44 -216 34 -208T23 -186Q23 -176 96 116T173 414Q186 442 219 442Q231 441 239 435T249 423T251 413Q251 401 220 279T187 142Q185 131 185 107V99Q185 26 252 26Q261 26 270 27T287 31T302 38T315 45T327 55T338 65T348 77T356 88T365 100L372 110L408 253Q444 395 448 404Q461 431 491 431Q504 431 512 424T523 412T525 402L449 84Q448 79 448 68Q448 43 455 35T476 26Q485 27 496 35Q517 55 537 131Q543 151 547 152Q549 153 557 153H561Q580 153 580 144Q580 138 575 117T555 63T523 13Q510 0 491 -8Q483 -10 467 -10Q446 -10 429 -4T402 11T385 29T376 44T374 51L368 45Q362 39 350 30T324 12T288 -4T246 -11Q199 -11 153 12L129 -85Q108 -167 104 -180T92 -202Q76 -216 58 -216Z"></path>
<path stroke-width="10" id="E1-MJMAIN-32" d="M109 429Q82 429 66 447T50 491Q50 562 103 614T235 666Q326 666 387 610T449 465Q449 422 429 383T381 315T301 241Q265 210 201 149L142 93L218 92Q375 92 385 97Q392 99 409 186V189H449V186Q448 183 436 95T421 3V0H50V19V31Q50 38 56 46T86 81Q115 113 136 137Q145 147 170 174T204 211T233 244T261 278T284 308T305 340T320 369T333 401T340 431T343 464Q343 527 309 573T212 619Q179 619 154 602T119 569T109 550Q109 549 114 549Q132 549 151 535T170 489Q170 464 154 447T109 429Z"></path>
<path stroke-width="10" id="E1-MJMATHI-67" d="M311 43Q296 30 267 15T206 0Q143 0 105 45T66 160Q66 265 143 353T314 442Q361 442 401 394L404 398Q406 401 409 404T418 412T431 419T447 422Q461 422 470 413T480 394Q480 379 423 152T363 -80Q345 -134 286 -169T151 -205Q10 -205 10 -137Q10 -111 28 -91T74 -71Q89 -71 102 -80T116 -111Q116 -121 114 -130T107 -144T99 -154T92 -162L90 -164H91Q101 -167 151 -167Q189 -167 211 -155Q234 -144 254 -122T282 -75Q288 -56 298 -13Q311 35 311 43ZM384 328L380 339Q377 350 375 354T369 368T359 382T346 393T328 402T306 405Q262 405 221 352Q191 313 171 233T151 117Q151 38 213 38Q269 38 323 108L331 118L384 328Z"></path>
<path stroke-width="10" id="E1-MJSZ4-28" d="M758 -1237T758 -1240T752 -1249H736Q718 -1249 717 -1248Q711 -1245 672 -1199Q237 -706 237 251T672 1700Q697 1730 716 1749Q718 1750 735 1750H752Q758 1744 758 1741Q758 1737 740 1713T689 1644T619 1537T540 1380T463 1176Q348 802 348 251Q348 -242 441 -599T744 -1218Q758 -1237 758 -1240Z"></path>
<path stroke-width="10" id="E1-MJSZ4-29" d="M33 1741Q33 1750 51 1750H60H65Q73 1750 81 1743T119 1700Q554 1207 554 251Q554 -707 119 -1199Q76 -1250 66 -1250Q65 -1250 62 -1250T56 -1249Q55 -1249 53 -1249T49 -1250Q33 -1250 33 -1239Q33 -1236 50 -1214T98 -1150T163 -1052T238 -910T311 -727Q443 -335 443 251Q443 402 436 532T405 831T339 1142T224 1438T50 1716Q33 1737 33 1741Z"></path>
<path stroke-width="10" id="E1-MJMAIN-2E" d="M78 60Q78 84 95 102T138 120Q162 120 180 104T199 61Q199 36 182 18T139 0T96 17T78 60Z"></path>
</defs>
<g stroke="currentColor" fill="currentColor" stroke-width="0" transform="matrix(1 0 0 -1 0 0)">
<g transform="translate(167,0)">
<g transform="translate(-11,0)">
 <use xlink:href="#E1-MJMATHI-78" x="0" y="3061"></use>
 <use xlink:href="#E1-MJMATHI-79" x="75" y="0"></use>
 <use xlink:href="#E1-MJMATHI-7A" x="104" y="-3107"></use>
</g>
<g transform="translate(566,0)">
<g transform="translate(0,3061)">
 <use xlink:href="#E1-MJMAIN-3A" x="277" y="0"></use>
</g>
 <use xlink:href="#E1-MJMAIN-3A" x="277" y="0"></use>
<g transform="translate(0,-3107)">
 <use xlink:href="#E1-MJMAIN-3A" x="277" y="0"></use>
</g>
</g>
<g transform="translate(3655,0)">
<g transform="translate(0,3061)">
 <use xlink:href="#E1-MJMATHI-3C1" x="0" y="0"></use>
<g transform="translate(688,0)">
 <use xlink:href="#E1-MJSZ3-28"></use>
<g transform="translate(741,0)">
<g transform="translate(120,0)">
<rect stroke="none" width="1777" height="60" x="0" y="220"></rect>
<g transform="translate(60,684)">
 <use xlink:href="#E1-MJMAIN-2202" x="0" y="0"></use>
<g transform="translate(572,0)">
 <use xlink:href="#E1-MJMATHI-75" x="0" y="0"></use>
 <use transform="scale(0.707)" xlink:href="#E1-MJMATHI-78" x="816" y="-213"></use>
</g>
</g>
<g transform="translate(419,-745)">
 <use xlink:href="#E1-MJMAIN-2202" x="0" y="0"></use>
 <use xlink:href="#E1-MJMATHI-74" x="572" y="0"></use>
</g>
</g>
</g>
 <use xlink:href="#E1-MJMAIN-2B" x="2980" y="0"></use>
<g transform="translate(3985,0)">
 <use xlink:href="#E1-MJMATHI-75" x="0" y="0"></use>
 <use transform="scale(0.707)" xlink:href="#E1-MJMATHI-78" x="816" y="-213"></use>
</g>
<g transform="translate(5070,0)">
<g transform="translate(120,0)">
<rect stroke="none" width="1777" height="60" x="0" y="220"></rect>
<g transform="translate(60,684)">
 <use xlink:href="#E1-MJMAIN-2202" x="0" y="0"></use>
<g transform="translate(572,0)">
 <use xlink:href="#E1-MJMATHI-75" x="0" y="0"></use>
 <use transform="scale(0.707)" xlink:href="#E1-MJMATHI-78" x="816" y="-213"></use>
</g>
</g>
<g transform="translate(314,-745)">
 <use xlink:href="#E1-MJMAIN-2202" x="0" y="0"></use>
 <use xlink:href="#E1-MJMATHI-78" x="572" y="0"></use>
</g>
</g>
</g>
 <use xlink:href="#E1-MJMAIN-2B" x="7309" y="0"></use>
<g transform="translate(8314,0)">
 <use xlink:href="#E1-MJMATHI-75" x="0" y="0"></use>
 <use transform="scale(0.707)" xlink:href="#E1-MJMATHI-79" x="816" y="-213"></use>
</g>
<g transform="translate(9346,0)">
<g transform="translate(120,0)">
<rect stroke="none" width="1777" height="60" x="0" y="220"></rect>
<g transform="translate(60,684)">
 <use xlink:href="#E1-MJMAIN-2202" x="0" y="0"></use>
<g transform="translate(572,0)">
 <use xlink:href="#E1-MJMATHI-75" x="0" y="0"></use>
 <use transform="scale(0.707)" xlink:href="#E1-MJMATHI-78" x="816" y="-213"></use>
</g>
</g>
<g transform="translate(351,-745)">
 <use xlink:href="#E1-MJMAIN-2202" x="0" y="0"></use>
 <use xlink:href="#E1-MJMATHI-79" x="572" y="0"></use>
</g>
</g>
</g>
 <use xlink:href="#E1-MJMAIN-2B" x="11586" y="0"></use>
<g transform="translate(12591,0)">
 <use xlink:href="#E1-MJMATHI-75" x="0" y="0"></use>
 <use transform="scale(0.707)" xlink:href="#E1-MJMATHI-7A" x="816" y="-213"></use>
</g>
<g transform="translate(13602,0)">
<g transform="translate(120,0)">
<rect stroke="none" width="1777" height="60" x="0" y="220"></rect>
<g transform="translate(60,684)">
 <use xlink:href="#E1-MJMAIN-2202" x="0" y="0"></use>
<g transform="translate(572,0)">
 <use xlink:href="#E1-MJMATHI-75" x="0" y="0"></use>
 <use transform="scale(0.707)" xlink:href="#E1-MJMATHI-78" x="816" y="-213"></use>
</g>
</g>
<g transform="translate(366,-745)">
 <use xlink:href="#E1-MJMAIN-2202" x="0" y="0"></use>
 <use xlink:href="#E1-MJMATHI-7A" x="572" y="0"></use>
</g>
</g>
</g>
 <use xlink:href="#E1-MJSZ3-29" x="15619" y="-1"></use>
</g>
</g>
<g transform="translate(212,0)">
 <use xlink:href="#E1-MJMATHI-3C1" x="0" y="0"></use>
<g transform="translate(688,0)">
 <use xlink:href="#E1-MJSZ3-28"></use>
<g transform="translate(741,0)">
<g transform="translate(120,0)">
<rect stroke="none" width="1723" height="60" x="0" y="220"></rect>
<g transform="translate(60,821)">
 <use xlink:href="#E1-MJMAIN-2202" x="0" y="0"></use>
<g transform="translate(572,0)">
 <use xlink:href="#E1-MJMATHI-75" x="0" y="0"></use>
 <use transform="scale(0.707)" xlink:href="#E1-MJMATHI-79" x="816" y="-213"></use>
</g>
</g>
<g transform="translate(392,-745)">
 <use xlink:href="#E1-MJMAIN-2202" x="0" y="0"></use>
 <use xlink:href="#E1-MJMATHI-74" x="572" y="0"></use>
</g>
</g>
</g>
 <use xlink:href="#E1-MJMAIN-2B" x="2927" y="0"></use>
<g transform="translate(3932,0)">
 <use xlink:href="#E1-MJMATHI-75" x="0" y="0"></use>
 <use transform="scale(0.707)" xlink:href="#E1-MJMATHI-78" x="816" y="-213"></use>
</g>
<g transform="translate(5017,0)">
<g transform="translate(120,0)">
<rect stroke="none" width="1723" height="60" x="0" y="220"></rect>
<g transform="translate(60,821)">
 <use xlink:href="#E1-MJMAIN-2202" x="0" y="0"></use>
<g transform="translate(572,0)">
 <use xlink:href="#E1-MJMATHI-75" x="0" y="0"></use>
 <use transform="scale(0.707)" xlink:href="#E1-MJMATHI-79" x="816" y="-213"></use>
</g>
</g>
<g transform="translate(287,-745)">
 <use xlink:href="#E1-MJMAIN-2202" x="0" y="0"></use>
 <use xlink:href="#E1-MJMATHI-78" x="572" y="0"></use>
</g>
</g>
</g>
 <use xlink:href="#E1-MJMAIN-2B" x="7203" y="0"></use>
<g transform="translate(8208,0)">
 <use xlink:href="#E1-MJMATHI-75" x="0" y="0"></use>
 <use transform="scale(0.707)" xlink:href="#E1-MJMATHI-79" x="816" y="-213"></use>
</g>
<g transform="translate(9240,0)">
<g transform="translate(120,0)">
<rect stroke="none" width="1723" height="60" x="0" y="220"></rect>
<g transform="translate(60,821)">
 <use xlink:href="#E1-MJMAIN-2202" x="0" y="0"></use>
<g transform="translate(572,0)">
 <use xlink:href="#E1-MJMATHI-75" x="0" y="0"></use>
 <use transform="scale(0.707)" xlink:href="#E1-MJMATHI-79" x="816" y="-213"></use>
</g>
</g>
<g transform="translate(324,-745)">
 <use xlink:href="#E1-MJMAIN-2202" x="0" y="0"></use>
 <use xlink:href="#E1-MJMATHI-79" x="572" y="0"></use>
</g>
</g>
</g>
 <use xlink:href="#E1-MJMAIN-2B" x="11426" y="0"></use>
<g transform="translate(12432,0)">
 <use xlink:href="#E1-MJMATHI-75" x="0" y="0"></use>
 <use transform="scale(0.707)" xlink:href="#E1-MJMATHI-7A" x="816" y="-213"></use>
</g>
<g transform="translate(13443,0)">
<g transform="translate(120,0)">
<rect stroke="none" width="1723" height="60" x="0" y="220"></rect>
<g transform="translate(60,821)">
 <use xlink:href="#E1-MJMAIN-2202" x="0" y="0"></use>
<g transform="translate(572,0)">
 <use xlink:href="#E1-MJMATHI-75" x="0" y="0"></use>
 <use transform="scale(0.707)" xlink:href="#E1-MJMATHI-79" x="816" y="-213"></use>
</g>
</g>
<g transform="translate(339,-745)">
 <use xlink:href="#E1-MJMAIN-2202" x="0" y="0"></use>
 <use xlink:href="#E1-MJMATHI-7A" x="572" y="0"></use>
</g>
</g>
</g>
 <use xlink:href="#E1-MJSZ3-29" x="15407" y="-1"></use>
</g>
</g>
<g transform="translate(294,-3107)">
 <use xlink:href="#E1-MJMATHI-3C1" x="0" y="0"></use>
<g transform="translate(688,0)">
 <use xlink:href="#E1-MJSZ3-28"></use>
<g transform="translate(741,0)">
<g transform="translate(120,0)">
<rect stroke="none" width="1703" height="60" x="0" y="220"></rect>
<g transform="translate(60,684)">
 <use xlink:href="#E1-MJMAIN-2202" x="0" y="0"></use>
<g transform="translate(572,0)">
 <use xlink:href="#E1-MJMATHI-75" x="0" y="0"></use>
 <use transform="scale(0.707)" xlink:href="#E1-MJMATHI-7A" x="816" y="-213"></use>
</g>
</g>
<g transform="translate(382,-745)">
 <use xlink:href="#E1-MJMAIN-2202" x="0" y="0"></use>
 <use xlink:href="#E1-MJMATHI-74" x="572" y="0"></use>
</g>
</g>
</g>
 <use xlink:href="#E1-MJMAIN-2B" x="2906" y="0"></use>
<g transform="translate(3911,0)">
 <use xlink:href="#E1-MJMATHI-75" x="0" y="0"></use>
 <use transform="scale(0.707)" xlink:href="#E1-MJMATHI-78" x="816" y="-213"></use>
</g>
<g transform="translate(4996,0)">
<g transform="translate(120,0)">
<rect stroke="none" width="1703" height="60" x="0" y="220"></rect>
<g transform="translate(60,684)">
 <use xlink:href="#E1-MJMAIN-2202" x="0" y="0"></use>
<g transform="translate(572,0)">
 <use xlink:href="#E1-MJMATHI-75" x="0" y="0"></use>
 <use transform="scale(0.707)" xlink:href="#E1-MJMATHI-7A" x="816" y="-213"></use>
</g>
</g>
<g transform="translate(277,-745)">
 <use xlink:href="#E1-MJMAIN-2202" x="0" y="0"></use>
 <use xlink:href="#E1-MJMATHI-78" x="572" y="0"></use>
</g>
</g>
</g>
 <use xlink:href="#E1-MJMAIN-2B" x="7162" y="0"></use>
<g transform="translate(8167,0)">
 <use xlink:href="#E1-MJMATHI-75" x="0" y="0"></use>
 <use transform="scale(0.707)" xlink:href="#E1-MJMATHI-79" x="816" y="-213"></use>
</g>
<g transform="translate(9199,0)">
<g transform="translate(120,0)">
<rect stroke="none" width="1703" height="60" x="0" y="220"></rect>
<g transform="translate(60,684)">
 <use xlink:href="#E1-MJMAIN-2202" x="0" y="0"></use>
<g transform="translate(572,0)">
 <use xlink:href="#E1-MJMATHI-75" x="0" y="0"></use>
 <use transform="scale(0.707)" xlink:href="#E1-MJMATHI-7A" x="816" y="-213"></use>
</g>
</g>
<g transform="translate(314,-745)">
 <use xlink:href="#E1-MJMAIN-2202" x="0" y="0"></use>
 <use xlink:href="#E1-MJMATHI-79" x="572" y="0"></use>
</g>
</g>
</g>
 <use xlink:href="#E1-MJMAIN-2B" x="11365" y="0"></use>
<g transform="translate(12370,0)">
 <use xlink:href="#E1-MJMATHI-75" x="0" y="0"></use>
 <use transform="scale(0.707)" xlink:href="#E1-MJMATHI-7A" x="816" y="-213"></use>
</g>
<g transform="translate(13382,0)">
<g transform="translate(120,0)">
<rect stroke="none" width="1703" height="60" x="0" y="220"></rect>
<g transform="translate(60,684)">
 <use xlink:href="#E1-MJMAIN-2202" x="0" y="0"></use>
<g transform="translate(572,0)">
 <use xlink:href="#E1-MJMATHI-75" x="0" y="0"></use>
 <use transform="scale(0.707)" xlink:href="#E1-MJMATHI-7A" x="816" y="-213"></use>
</g>
</g>
<g transform="translate(329,-745)">
 <use xlink:href="#E1-MJMAIN-2202" x="0" y="0"></use>
 <use xlink:href="#E1-MJMATHI-7A" x="572" y="0"></use>
</g>
</g>
</g>
 <use xlink:href="#E1-MJSZ3-29" x="15325" y="-1"></use>
</g>
</g>
</g>
<g transform="translate(20704,0)">
<g transform="translate(0,3061)">
 <use xlink:href="#E1-MJMAIN-3D" x="277" y="0"></use>
 <use xlink:href="#E1-MJMAIN-2212" x="1338" y="0"></use>
<g transform="translate(2121,0)">
<g transform="translate(120,0)">
<rect stroke="none" width="1269" height="60" x="0" y="220"></rect>
<g transform="translate(94,723)">
 <use xlink:href="#E1-MJMAIN-2202" x="0" y="0"></use>
 <use xlink:href="#E1-MJMATHI-70" x="572" y="0"></use>
</g>
<g transform="translate(60,-745)">
 <use xlink:href="#E1-MJMAIN-2202" x="0" y="0"></use>
 <use xlink:href="#E1-MJMATHI-78" x="572" y="0"></use>
</g>
</g>
</g>
 <use xlink:href="#E1-MJMAIN-2B" x="3852" y="0"></use>
 <use xlink:href="#E1-MJMATHI-3BC" x="4858" y="0"></use>
<g transform="translate(5632,0)">
 <use xlink:href="#E1-MJSZ3-28"></use>
<g transform="translate(741,0)">
<g transform="translate(120,0)">
<rect stroke="none" width="2244" height="60" x="0" y="220"></rect>
<g transform="translate(60,684)">
 <use xlink:href="#E1-MJMAIN-2202" x="0" y="0"></use>
 <use transform="scale(0.707)" xlink:href="#E1-MJMAIN-32" x="824" y="513"></use>
<g transform="translate(1039,0)">
 <use xlink:href="#E1-MJMATHI-75" x="0" y="0"></use>
 <use transform="scale(0.707)" xlink:href="#E1-MJMATHI-78" x="816" y="-213"></use>
</g>
</g>
<g transform="translate(319,-787)">
 <use xlink:href="#E1-MJMAIN-2202" x="0" y="0"></use>
<g transform="translate(572,0)">
 <use xlink:href="#E1-MJMATHI-78" x="0" y="0"></use>
 <use transform="scale(0.707)" xlink:href="#E1-MJMAIN-32" x="816" y="408"></use>
</g>
</g>
</g>
</g>
 <use xlink:href="#E1-MJMAIN-2B" x="3448" y="0"></use>
<g transform="translate(4453,0)">
<g transform="translate(120,0)">
<rect stroke="none" width="2244" height="60" x="0" y="220"></rect>
<g transform="translate(60,684)">
 <use xlink:href="#E1-MJMAIN-2202" x="0" y="0"></use>
 <use transform="scale(0.707)" xlink:href="#E1-MJMAIN-32" x="824" y="513"></use>
<g transform="translate(1039,0)">
 <use xlink:href="#E1-MJMATHI-75" x="0" y="0"></use>
 <use transform="scale(0.707)" xlink:href="#E1-MJMATHI-78" x="816" y="-213"></use>
</g>
</g>
<g transform="translate(355,-787)">
 <use xlink:href="#E1-MJMAIN-2202" x="0" y="0"></use>
<g transform="translate(572,0)">
 <use xlink:href="#E1-MJMATHI-79" x="0" y="0"></use>
 <use transform="scale(0.707)" xlink:href="#E1-MJMAIN-32" x="712" y="408"></use>
</g>
</g>
</g>
</g>
 <use xlink:href="#E1-MJMAIN-2B" x="7160" y="0"></use>
<g transform="translate(8165,0)">
<g transform="translate(120,0)">
<rect stroke="none" width="2244" height="60" x="0" y="220"></rect>
<g transform="translate(60,684)">
 <use xlink:href="#E1-MJMAIN-2202" x="0" y="0"></use>
 <use transform="scale(0.707)" xlink:href="#E1-MJMAIN-32" x="824" y="513"></use>
<g transform="translate(1039,0)">
 <use xlink:href="#E1-MJMATHI-75" x="0" y="0"></use>
 <use transform="scale(0.707)" xlink:href="#E1-MJMATHI-78" x="816" y="-213"></use>
</g>
</g>
<g transform="translate(370,-787)">
 <use xlink:href="#E1-MJMAIN-2202" x="0" y="0"></use>
<g transform="translate(572,0)">
 <use xlink:href="#E1-MJMATHI-7A" x="0" y="0"></use>
 <use transform="scale(0.707)" xlink:href="#E1-MJMAIN-32" x="670" y="408"></use>
</g>
</g>
</g>
</g>
 <use xlink:href="#E1-MJSZ3-29" x="10650" y="-1"></use>
</g>
 <use xlink:href="#E1-MJMAIN-2212" x="17246" y="0"></use>
 <use xlink:href="#E1-MJMATHI-3BC" x="18251" y="0"></use>
<g transform="translate(18859,0)">
<g transform="translate(120,0)">
<rect stroke="none" width="1269" height="60" x="0" y="220"></rect>
 <use xlink:href="#E1-MJMAIN-2202" x="348" y="676"></use>
<g transform="translate(60,-745)">
 <use xlink:href="#E1-MJMAIN-2202" x="0" y="0"></use>
 <use xlink:href="#E1-MJMATHI-78" x="572" y="0"></use>
</g>
</g>
</g>
<g transform="translate(20535,0)">
 <use xlink:href="#E1-MJSZ3-28"></use>
<g transform="translate(741,0)">
<g transform="translate(120,0)">
<rect stroke="none" width="1777" height="60" x="0" y="220"></rect>
<g transform="translate(60,684)">
 <use xlink:href="#E1-MJMAIN-2202" x="0" y="0"></use>
<g transform="translate(572,0)">
 <use xlink:href="#E1-MJMATHI-75" x="0" y="0"></use>
 <use transform="scale(0.707)" xlink:href="#E1-MJMATHI-78" x="816" y="-213"></use>
</g>
</g>
<g transform="translate(314,-745)">
 <use xlink:href="#E1-MJMAIN-2202" x="0" y="0"></use>
 <use xlink:href="#E1-MJMATHI-78" x="572" y="0"></use>
</g>
</g>
</g>
 <use xlink:href="#E1-MJMAIN-2B" x="2980" y="0"></use>
<g transform="translate(3985,0)">
<g transform="translate(120,0)">
<rect stroke="none" width="1723" height="60" x="0" y="220"></rect>
<g transform="translate(60,821)">
 <use xlink:href="#E1-MJMAIN-2202" x="0" y="0"></use>
<g transform="translate(572,0)">
 <use xlink:href="#E1-MJMATHI-75" x="0" y="0"></use>
 <use transform="scale(0.707)" xlink:href="#E1-MJMATHI-79" x="816" y="-213"></use>
</g>
</g>
<g transform="translate(324,-745)">
 <use xlink:href="#E1-MJMAIN-2202" x="0" y="0"></use>
 <use xlink:href="#E1-MJMATHI-79" x="572" y="0"></use>
</g>
</g>
</g>
 <use xlink:href="#E1-MJMAIN-2B" x="6171" y="0"></use>
<g transform="translate(7176,0)">
<g transform="translate(120,0)">
<rect stroke="none" width="1703" height="60" x="0" y="220"></rect>
<g transform="translate(60,684)">
 <use xlink:href="#E1-MJMAIN-2202" x="0" y="0"></use>
<g transform="translate(572,0)">
 <use xlink:href="#E1-MJMATHI-75" x="0" y="0"></use>
 <use transform="scale(0.707)" xlink:href="#E1-MJMATHI-7A" x="816" y="-213"></use>
</g>
</g>
<g transform="translate(329,-745)">
 <use xlink:href="#E1-MJMAIN-2202" x="0" y="0"></use>
 <use xlink:href="#E1-MJMATHI-7A" x="572" y="0"></use>
</g>
</g>
</g>
 <use xlink:href="#E1-MJSZ3-29" x="9120" y="-1"></use>
</g>
 <use xlink:href="#E1-MJMAIN-2B" x="30619" y="0"></use>
 <use xlink:href="#E1-MJMATHI-3C1" x="31624" y="0"></use>
<g transform="translate(32146,0)">
 <use xlink:href="#E1-MJMATHI-67" x="0" y="0"></use>
 <use transform="scale(0.707)" xlink:href="#E1-MJMATHI-78" x="681" y="-213"></use>
</g>
</g>
 <use xlink:href="#E1-MJMAIN-3D" x="277" y="0"></use>
 <use xlink:href="#E1-MJMAIN-2212" x="1338" y="0"></use>
<g transform="translate(2121,0)">
<g transform="translate(120,0)">
<rect stroke="none" width="1200" height="60" x="0" y="220"></rect>
<g transform="translate(60,723)">
 <use xlink:href="#E1-MJMAIN-2202" x="0" y="0"></use>
 <use xlink:href="#E1-MJMATHI-70" x="572" y="0"></use>
</g>
<g transform="translate(63,-745)">
 <use xlink:href="#E1-MJMAIN-2202" x="0" y="0"></use>
 <use xlink:href="#E1-MJMATHI-79" x="572" y="0"></use>
</g>
</g>
</g>
 <use xlink:href="#E1-MJMAIN-2B" x="3783" y="0"></use>
 <use xlink:href="#E1-MJMATHI-3BC" x="4789" y="0"></use>
<g transform="translate(5563,0)">
 <use xlink:href="#E1-MJSZ4-28"></use>
<g transform="translate(797,0)">
<g transform="translate(120,0)">
<rect stroke="none" width="2191" height="60" x="0" y="220"></rect>
<g transform="translate(60,821)">
 <use xlink:href="#E1-MJMAIN-2202" x="0" y="0"></use>
 <use transform="scale(0.707)" xlink:href="#E1-MJMAIN-32" x="824" y="513"></use>
<g transform="translate(1039,0)">
 <use xlink:href="#E1-MJMATHI-75" x="0" y="0"></use>
 <use transform="scale(0.707)" xlink:href="#E1-MJMATHI-79" x="816" y="-213"></use>
</g>
</g>
<g transform="translate(292,-787)">
 <use xlink:href="#E1-MJMAIN-2202" x="0" y="0"></use>
<g transform="translate(572,0)">
 <use xlink:href="#E1-MJMATHI-78" x="0" y="0"></use>
 <use transform="scale(0.707)" xlink:href="#E1-MJMAIN-32" x="816" y="408"></use>
</g>
</g>
</g>
</g>
 <use xlink:href="#E1-MJMAIN-2B" x="3451" y="0"></use>
<g transform="translate(4456,0)">
<g transform="translate(120,0)">
<rect stroke="none" width="2191" height="60" x="0" y="220"></rect>
<g transform="translate(60,821)">
 <use xlink:href="#E1-MJMAIN-2202" x="0" y="0"></use>
 <use transform="scale(0.707)" xlink:href="#E1-MJMAIN-32" x="824" y="513"></use>
<g transform="translate(1039,0)">
 <use xlink:href="#E1-MJMATHI-75" x="0" y="0"></use>
 <use transform="scale(0.707)" xlink:href="#E1-MJMATHI-79" x="816" y="-213"></use>
</g>
</g>
<g transform="translate(329,-787)">
 <use xlink:href="#E1-MJMAIN-2202" x="0" y="0"></use>
<g transform="translate(572,0)">
 <use xlink:href="#E1-MJMATHI-79" x="0" y="0"></use>
 <use transform="scale(0.707)" xlink:href="#E1-MJMAIN-32" x="712" y="408"></use>
</g>
</g>
</g>
</g>
 <use xlink:href="#E1-MJMAIN-2B" x="7110" y="0"></use>
<g transform="translate(8115,0)">
<g transform="translate(120,0)">
<rect stroke="none" width="2191" height="60" x="0" y="220"></rect>
<g transform="translate(60,821)">
 <use xlink:href="#E1-MJMAIN-2202" x="0" y="0"></use>
 <use transform="scale(0.707)" xlink:href="#E1-MJMAIN-32" x="824" y="513"></use>
<g transform="translate(1039,0)">
 <use xlink:href="#E1-MJMATHI-75" x="0" y="0"></use>
 <use transform="scale(0.707)" xlink:href="#E1-MJMATHI-79" x="816" y="-213"></use>
</g>
</g>
<g transform="translate(344,-787)">
 <use xlink:href="#E1-MJMAIN-2202" x="0" y="0"></use>
<g transform="translate(572,0)">
 <use xlink:href="#E1-MJMATHI-7A" x="0" y="0"></use>
 <use transform="scale(0.707)" xlink:href="#E1-MJMAIN-32" x="670" y="408"></use>
</g>
</g>
</g>
</g>
 <use xlink:href="#E1-MJSZ4-29" x="10547" y="0"></use>
</g>
 <use xlink:href="#E1-MJMAIN-2212" x="17130" y="0"></use>
 <use xlink:href="#E1-MJMATHI-3BC" x="18135" y="0"></use>
<g transform="translate(18743,0)">
<g transform="translate(120,0)">
<rect stroke="none" width="1194" height="60" x="0" y="220"></rect>
 <use xlink:href="#E1-MJMAIN-2202" x="311" y="676"></use>
<g transform="translate(60,-745)">
 <use xlink:href="#E1-MJMAIN-2202" x="0" y="0"></use>
 <use xlink:href="#E1-MJMATHI-79" x="572" y="0"></use>
</g>
</g>
</g>
<g transform="translate(20344,0)">
 <use xlink:href="#E1-MJSZ3-28"></use>
<g transform="translate(741,0)">
<g transform="translate(120,0)">
<rect stroke="none" width="1777" height="60" x="0" y="220"></rect>
<g transform="translate(60,684)">
 <use xlink:href="#E1-MJMAIN-2202" x="0" y="0"></use>
<g transform="translate(572,0)">
 <use xlink:href="#E1-MJMATHI-75" x="0" y="0"></use>
 <use transform="scale(0.707)" xlink:href="#E1-MJMATHI-78" x="816" y="-213"></use>
</g>
</g>
<g transform="translate(314,-745)">
 <use xlink:href="#E1-MJMAIN-2202" x="0" y="0"></use>
 <use xlink:href="#E1-MJMATHI-78" x="572" y="0"></use>
</g>
</g>
</g>
 <use xlink:href="#E1-MJMAIN-2B" x="2980" y="0"></use>
<g transform="translate(3985,0)">
<g transform="translate(120,0)">
<rect stroke="none" width="1723" height="60" x="0" y="220"></rect>
<g transform="translate(60,821)">
 <use xlink:href="#E1-MJMAIN-2202" x="0" y="0"></use>
<g transform="translate(572,0)">
 <use xlink:href="#E1-MJMATHI-75" x="0" y="0"></use>
 <use transform="scale(0.707)" xlink:href="#E1-MJMATHI-79" x="816" y="-213"></use>
</g>
</g>
<g transform="translate(324,-745)">
 <use xlink:href="#E1-MJMAIN-2202" x="0" y="0"></use>
 <use xlink:href="#E1-MJMATHI-79" x="572" y="0"></use>
</g>
</g>
</g>
 <use xlink:href="#E1-MJMAIN-2B" x="6171" y="0"></use>
<g transform="translate(7176,0)">
<g transform="translate(120,0)">
<rect stroke="none" width="1703" height="60" x="0" y="220"></rect>
<g transform="translate(60,684)">
 <use xlink:href="#E1-MJMAIN-2202" x="0" y="0"></use>
<g transform="translate(572,0)">
 <use xlink:href="#E1-MJMATHI-75" x="0" y="0"></use>
 <use transform="scale(0.707)" xlink:href="#E1-MJMATHI-7A" x="816" y="-213"></use>
</g>
</g>
<g transform="translate(329,-745)">
 <use xlink:href="#E1-MJMAIN-2202" x="0" y="0"></use>
 <use xlink:href="#E1-MJMATHI-7A" x="572" y="0"></use>
</g>
</g>
</g>
 <use xlink:href="#E1-MJSZ3-29" x="9120" y="-1"></use>
</g>
 <use xlink:href="#E1-MJMAIN-2B" x="30427" y="0"></use>
 <use xlink:href="#E1-MJMATHI-3C1" x="31433" y="0"></use>
<g transform="translate(31955,0)">
 <use xlink:href="#E1-MJMATHI-67" x="0" y="0"></use>
 <use transform="scale(0.707)" xlink:href="#E1-MJMATHI-79" x="681" y="-213"></use>
</g>
<g transform="translate(0,-3107)">
 <use xlink:href="#E1-MJMAIN-3D" x="277" y="0"></use>
 <use xlink:href="#E1-MJMAIN-2212" x="1338" y="0"></use>
<g transform="translate(2121,0)">
<g transform="translate(120,0)">
<rect stroke="none" width="1200" height="60" x="0" y="220"></rect>
<g transform="translate(60,723)">
 <use xlink:href="#E1-MJMAIN-2202" x="0" y="0"></use>
 <use xlink:href="#E1-MJMATHI-70" x="572" y="0"></use>
</g>
<g transform="translate(77,-745)">
 <use xlink:href="#E1-MJMAIN-2202" x="0" y="0"></use>
 <use xlink:href="#E1-MJMATHI-7A" x="572" y="0"></use>
</g>
</g>
</g>
 <use xlink:href="#E1-MJMAIN-2B" x="3783" y="0"></use>
 <use xlink:href="#E1-MJMATHI-3BC" x="4789" y="0"></use>
<g transform="translate(5563,0)">
 <use xlink:href="#E1-MJSZ3-28"></use>
<g transform="translate(741,0)">
<g transform="translate(120,0)">
<rect stroke="none" width="2171" height="60" x="0" y="220"></rect>
<g transform="translate(60,684)">
 <use xlink:href="#E1-MJMAIN-2202" x="0" y="0"></use>
 <use transform="scale(0.707)" xlink:href="#E1-MJMAIN-32" x="824" y="513"></use>
<g transform="translate(1039,0)">
 <use xlink:href="#E1-MJMATHI-75" x="0" y="0"></use>
 <use transform="scale(0.707)" xlink:href="#E1-MJMATHI-7A" x="816" y="-213"></use>
</g>
</g>
<g transform="translate(282,-787)">
 <use xlink:href="#E1-MJMAIN-2202" x="0" y="0"></use>
<g transform="translate(572,0)">
 <use xlink:href="#E1-MJMATHI-78" x="0" y="0"></use>
 <use transform="scale(0.707)" xlink:href="#E1-MJMAIN-32" x="816" y="408"></use>
</g>
</g>
</g>
</g>
 <use xlink:href="#E1-MJMAIN-2B" x="3374" y="0"></use>
<g transform="translate(4379,0)">
<g transform="translate(120,0)">
<rect stroke="none" width="2171" height="60" x="0" y="220"></rect>
<g transform="translate(60,684)">
 <use xlink:href="#E1-MJMAIN-2202" x="0" y="0"></use>
 <use transform="scale(0.707)" xlink:href="#E1-MJMAIN-32" x="824" y="513"></use>
<g transform="translate(1039,0)">
 <use xlink:href="#E1-MJMATHI-75" x="0" y="0"></use>
 <use transform="scale(0.707)" xlink:href="#E1-MJMATHI-7A" x="816" y="-213"></use>
</g>
</g>
<g transform="translate(319,-787)">
 <use xlink:href="#E1-MJMAIN-2202" x="0" y="0"></use>
<g transform="translate(572,0)">
 <use xlink:href="#E1-MJMATHI-79" x="0" y="0"></use>
 <use transform="scale(0.707)" xlink:href="#E1-MJMAIN-32" x="712" y="408"></use>
</g>
</g>
</g>
</g>
 <use xlink:href="#E1-MJMAIN-2B" x="7013" y="0"></use>
<g transform="translate(8018,0)">
<g transform="translate(120,0)">
<rect stroke="none" width="2171" height="60" x="0" y="220"></rect>
<g transform="translate(60,684)">
 <use xlink:href="#E1-MJMAIN-2202" x="0" y="0"></use>
 <use transform="scale(0.707)" xlink:href="#E1-MJMAIN-32" x="824" y="513"></use>
<g transform="translate(1039,0)">
 <use xlink:href="#E1-MJMATHI-75" x="0" y="0"></use>
 <use transform="scale(0.707)" xlink:href="#E1-MJMATHI-7A" x="816" y="-213"></use>
</g>
</g>
<g transform="translate(334,-787)">
 <use xlink:href="#E1-MJMAIN-2202" x="0" y="0"></use>
<g transform="translate(572,0)">
 <use xlink:href="#E1-MJMATHI-7A" x="0" y="0"></use>
 <use transform="scale(0.707)" xlink:href="#E1-MJMAIN-32" x="670" y="408"></use>
</g>
</g>
</g>
</g>
 <use xlink:href="#E1-MJSZ3-29" x="10430" y="-1"></use>
</g>
 <use xlink:href="#E1-MJMAIN-2212" x="16956" y="0"></use>
 <use xlink:href="#E1-MJMATHI-3BC" x="17962" y="0"></use>
<g transform="translate(18570,0)">
<g transform="translate(120,0)">
<rect stroke="none" width="1165" height="60" x="0" y="220"></rect>
 <use xlink:href="#E1-MJMAIN-2202" x="296" y="676"></use>
<g transform="translate(60,-745)">
 <use xlink:href="#E1-MJMAIN-2202" x="0" y="0"></use>
 <use xlink:href="#E1-MJMATHI-7A" x="572" y="0"></use>
</g>
</g>
</g>
<g transform="translate(20141,0)">
 <use xlink:href="#E1-MJSZ3-28"></use>
<g transform="translate(741,0)">
<g transform="translate(120,0)">
<rect stroke="none" width="1777" height="60" x="0" y="220"></rect>
<g transform="translate(60,684)">
 <use xlink:href="#E1-MJMAIN-2202" x="0" y="0"></use>
<g transform="translate(572,0)">
 <use xlink:href="#E1-MJMATHI-75" x="0" y="0"></use>
 <use transform="scale(0.707)" xlink:href="#E1-MJMATHI-78" x="816" y="-213"></use>
</g>
</g>
<g transform="translate(314,-745)">
 <use xlink:href="#E1-MJMAIN-2202" x="0" y="0"></use>
 <use xlink:href="#E1-MJMATHI-78" x="572" y="0"></use>
</g>
</g>
</g>
 <use xlink:href="#E1-MJMAIN-2B" x="2980" y="0"></use>
<g transform="translate(3985,0)">
<g transform="translate(120,0)">
<rect stroke="none" width="1723" height="60" x="0" y="220"></rect>
<g transform="translate(60,821)">
 <use xlink:href="#E1-MJMAIN-2202" x="0" y="0"></use>
<g transform="translate(572,0)">
 <use xlink:href="#E1-MJMATHI-75" x="0" y="0"></use>
 <use transform="scale(0.707)" xlink:href="#E1-MJMATHI-79" x="816" y="-213"></use>
</g>
</g>
<g transform="translate(324,-745)">
 <use xlink:href="#E1-MJMAIN-2202" x="0" y="0"></use>
 <use xlink:href="#E1-MJMATHI-79" x="572" y="0"></use>
</g>
</g>
</g>
 <use xlink:href="#E1-MJMAIN-2B" x="6171" y="0"></use>
<g transform="translate(7176,0)">
<g transform="translate(120,0)">
<rect stroke="none" width="1703" height="60" x="0" y="220"></rect>
<g transform="translate(60,684)">
 <use xlink:href="#E1-MJMAIN-2202" x="0" y="0"></use>
<g transform="translate(572,0)">
 <use xlink:href="#E1-MJMATHI-75" x="0" y="0"></use>
 <use transform="scale(0.707)" xlink:href="#E1-MJMATHI-7A" x="816" y="-213"></use>
</g>
</g>
<g transform="translate(329,-745)">
 <use xlink:href="#E1-MJMAIN-2202" x="0" y="0"></use>
 <use xlink:href="#E1-MJMATHI-7A" x="572" y="0"></use>
</g>
</g>
</g>
 <use xlink:href="#E1-MJSZ3-29" x="9120" y="-1"></use>
</g>
 <use xlink:href="#E1-MJMAIN-2B" x="30225" y="0"></use>
 <use xlink:href="#E1-MJMATHI-3C1" x="31230" y="0"></use>
<g transform="translate(31752,0)">
 <use xlink:href="#E1-MJMATHI-67" x="0" y="0"></use>
 <use transform="scale(0.707)" xlink:href="#E1-MJMATHI-7A" x="681" y="-213"></use>
</g>
 <use xlink:href="#E1-MJMAIN-2E" x="32669" y="0"></use>
</g>
</g>
</g>
</g>
</svg>