<?xml version="1.0" encoding="UTF-8" standalone="no"?>
<!-- Created with Inkscape (http://www.inkscape.org/) -->

<svg
   xmlns:dc="http://purl.org/dc/elements/1.1/"
   xmlns:cc="http://creativecommons.org/ns#"
   xmlns:rdf="http://www.w3.org/1999/02/22-rdf-syntax-ns#"
   xmlns:svg="http://www.w3.org/2000/svg"
   xmlns="http://www.w3.org/2000/svg"
   xmlns:sodipodi="http://sodipodi.sourceforge.net/DTD/sodipodi-0.dtd"
   xmlns:inkscape="http://www.inkscape.org/namespaces/inkscape"
   width="42.474522mm"
   height="64.744835mm"
   viewBox="0 0 150.50027 229.41083"
   id="svg2"
   version="1.1"
   inkscape:version="0.91 r13725"
   sodipodi:docname="diffusion.svg">
  <defs
     id="defs4" />
  <sodipodi:namedview
     id="base"
     pagecolor="#ffffff"
     bordercolor="#666666"
     borderopacity="1.0"
     inkscape:pageopacity="0.0"
     inkscape:pageshadow="2"
     inkscape:zoom="3.7007843"
     inkscape:cx="35.393721"
     inkscape:cy="114.70542"
     inkscape:document-units="px"
     inkscape:current-layer="layer1"
     showgrid="false"
     fit-margin-top="0"
     fit-margin-left="0"
     fit-margin-right="0"
     fit-margin-bottom="0"
     inkscape:window-width="1920"
     inkscape:window-height="1018"
     inkscape:window-x="-8"
     inkscape:window-y="-8"
     inkscape:window-maximized="1" />
  <metadata
     id="metadata7">
    <rdf:RDF>
      <cc:Work
         rdf:about="">
        <dc:format>image/svg+xml</dc:format>
        <dc:type
           rdf:resource="http://purl.org/dc/dcmitype/StillImage" />
        <dc:title />
      </cc:Work>
    </rdf:RDF>
  </metadata>
  <g
     inkscape:label="Layer 1"
     inkscape:groupmode="layer"
     id="layer1"
     transform="translate(-99.402046,-130.39034)">
    <rect
       style="fill:none;fill-rule:evenodd;stroke:#000000;stroke-width:2;stroke-linecap:butt;stroke-linejoin:miter;stroke-miterlimit:4;stroke-dasharray:none;stroke-opacity:1"
       id="rect3338"
       width="148.50027"
       height="227.41083"
       x="100.40205"
       y="131.39034" />
    <path
       style="fill:none;fill-rule:evenodd;stroke:#000000;stroke-width:0.5233686px;stroke-linecap:butt;stroke-linejoin:miter;stroke-opacity:1"
       d="m 100.40205,197.0855 148.37279,0"
       id="path4140"
       inkscape:connector-curvature="0" />
    <circle
       style="fill:none;stroke-width:2;stroke-miterlimit:4;stroke-dasharray:none"
       id="path4142"
       cx="154.57787"
       cy="199.03305"
       r="6.6724262" />
    <circle
       style="fill:#000000;fill-opacity:1;stroke:#000000;stroke-width:2;stroke-miterlimit:4;stroke-dasharray:none;stroke-opacity:1"
       id="path4144"
       cx="144.19855"
       cy="196.8477"
       r="5.1896648" />
    <g
       transform="translate(-8,-8)"
       style="font-style:normal;font-weight:normal;font-size:40px;line-height:125%;font-family:sans-serif;letter-spacing:0px;word-spacing:0px;fill:#000000;fill-opacity:1;stroke:none;stroke-width:1px;stroke-linecap:butt;stroke-linejoin:miter;stroke-opacity:1"
       id="flowRoot4146">
      <path
         d="m 153.24414,190.35223 -3.86719,0 0,-25.0586 -8.08593,17.05078 -2.30469,0 -8.02735,-17.05078 0,25.0586 -3.61328,0 0,-29.08203 5.27344,0 7.75391,16.1914 7.5,-16.1914 5.37109,0 0,29.08203 z"
         style=""
         id="path4152" />
      <path
         d="m 178.36133,190.35223 -15.74219,0 0,-2.96875 6.05469,0 0,-19.49219 -6.05469,0 0,-2.65625 q 1.23047,0 2.63672,-0.19531 1.40625,-0.21485 2.12891,-0.60547 0.89843,-0.48828 1.40625,-1.23047 0.52734,-0.76172 0.60546,-2.03125 l 3.02735,0 0,26.21094 5.9375,0 0,2.96875 z"
         style=""
         id="path4154" />
    </g>
    <path
       style="fill:none;fill-rule:evenodd;stroke:#000000;stroke-width:2;stroke-linecap:butt;stroke-linejoin:miter;stroke-miterlimit:4;stroke-dasharray:none;stroke-opacity:1"
       d="m 218.31069,189.54165 7.7845,7.7845 -7.7845,7.04311"
       id="path4158"
       inkscape:connector-curvature="0" />
    <circle
       style="fill:#000000;fill-opacity:1;stroke:#000000;stroke-width:2;stroke-miterlimit:4;stroke-dasharray:none;stroke-opacity:1"
       id="path4144-2"
       cx="164.61984"
       cy="299.27878"
       r="5.1896648" />
    <path
       style="fill:none;fill-rule:evenodd;stroke:#000000;stroke-width:2;stroke-linecap:butt;stroke-linejoin:miter;stroke-miterlimit:4;stroke-dasharray:none;stroke-opacity:1"
       d="m 186.73197,291.97272 7.7845,7.7845 -7.7845,7.04311"
       id="path4158-3"
       inkscape:connector-curvature="0" />
    <g
       transform="translate(0.82779,94.805103)"
       style="font-style:normal;font-weight:normal;font-size:40px;line-height:125%;font-family:sans-serif;letter-spacing:0px;word-spacing:0px;fill:#000000;fill-opacity:1;stroke:none;stroke-width:1px;stroke-linecap:butt;stroke-linejoin:miter;stroke-opacity:1"
       id="flowRoot4146-6">
      <path
         d="m 153.24414,190.35223 -3.86719,0 0,-25.0586 -8.08593,17.05078 -2.30469,0 -8.02735,-17.05078 0,25.0586 -3.61328,0 0,-29.08203 5.27344,0 7.75391,16.1914 7.5,-16.1914 5.37109,0 0,29.08203 z"
         style=""
         id="path4157" />
      <path
         d="m 180.02148,190.35223 -19.6875,0 0,-4.08203 q 2.05079,-1.75782 4.10157,-3.51563 2.07031,-1.75781 3.84765,-3.49609 3.75,-3.63282 5.13672,-5.76172 1.38672,-2.14844 1.38672,-4.62891 0,-2.26562 -1.50391,-3.53515 -1.48437,-1.28907 -4.16015,-1.28907 -1.77735,0 -3.84766,0.625 -2.07031,0.625 -4.04297,1.91407 l -0.19531,0 0,-4.10157 q 1.38672,-0.68359 3.69141,-1.25 2.32422,-0.5664 4.49218,-0.5664 4.47266,0 7.01172,2.16797 2.53907,2.14843 2.53907,5.83984 0,1.66016 -0.42969,3.10547 -0.41016,1.42578 -1.23047,2.71484 -0.76172,1.21094 -1.79688,2.38281 -1.01562,1.17188 -2.48046,2.59766 -2.08985,2.05078 -4.31641,3.98438 -2.22656,1.91406 -4.16016,3.55468 l 15.64453,0 0,3.33985 z"
         style=""
         id="path4159" />
      <path
         d="m 202.28711,168.10613 q 0,1.91407 -0.68359,3.41797 -0.6836,1.48438 -1.79688,2.63672 -1.09375,1.11328 -2.51953,2.08984 -1.42578,0.97657 -3.02734,1.89454 l 0,4.39453 -3.4961,0 0,-5.95703 q 1.26953,-0.72266 2.73438,-1.58204 1.48437,-0.85937 2.42187,-1.73828 1.13281,-1.01562 1.75781,-2.08984 0.625,-1.09375 0.625,-2.77344 0,-2.20703 -1.5039,-3.28125 -1.48438,-1.09375 -3.84766,-1.09375 -2.10937,0 -4.0039,0.66406 -1.875,0.66407 -2.96875,1.34766 l -0.19532,0 0,-3.98437 q 1.36719,-0.52735 3.45703,-0.9375 2.10938,-0.42969 3.98438,-0.42969 4.19922,0 6.62109,2.05078 2.44141,2.03125 2.44141,5.37109 z m -7.71484,22.2461 -3.98438,0 0,-4.1211 3.98438,0 0,4.1211 z"
         style=""
         id="path4161" />
    </g>
    <path
       style="fill:none;fill-rule:evenodd;stroke:#000000;stroke-width:0.5233686px;stroke-linecap:butt;stroke-linejoin:miter;stroke-opacity:1"
       d="m 100.35379,299.4388 148.3728,0"
       id="path4140-9"
       inkscape:connector-curvature="0" />
    <path
       style="fill:none;fill-rule:evenodd;stroke:#000000;stroke-width:2;stroke-linecap:butt;stroke-linejoin:miter;stroke-opacity:1;stroke-miterlimit:4;stroke-dasharray:none"
       d="m 193.97659,299.81388 -25.67023,0 0,0"
       id="path4291"
       inkscape:connector-curvature="0" />
    <path
       style="fill:none;fill-rule:evenodd;stroke:#000000;stroke-width:2;stroke-linecap:butt;stroke-linejoin:miter;stroke-opacity:1;stroke-miterlimit:4;stroke-dasharray:none"
       d="m 225.05109,197.40316 -79.44262,0"
       id="path4293"
       inkscape:connector-curvature="0" />
  </g>
</svg>
