<?xml version="1.0" standalone="no"?>
<!DOCTYPE svg PUBLIC "-//W3C//DTD SVG 1.1//EN" "http://www.w3.org/Graphics/SVG/1.1/DTD/svg11.dtd">
<svg xmlns:xlink="http://www.w3.org/1999/xlink" width="47.897ex" height="12.843ex" style="vertical-align: -5.671ex;" viewBox="0 -3087.6 20622.5 5529.4" xmlns="http://www.w3.org/2000/svg">
<defs>
<path stroke-width="10" id="E1-MJMAIN-2202" d="M202 508Q179 508 169 520T158 547Q158 557 164 577T185 624T230 675T301 710L333 715H345Q378 715 384 714Q447 703 489 661T549 568T566 457Q566 362 519 240T402 53Q321 -22 223 -22Q123 -22 73 56Q42 102 42 148V159Q42 276 129 370T322 465Q383 465 414 434T455 367L458 378Q478 461 478 515Q478 603 437 639T344 676Q266 676 223 612Q264 606 264 572Q264 547 246 528T202 508ZM430 306Q430 372 401 400T333 428Q270 428 222 382Q197 354 183 323T150 221Q132 149 132 116Q132 21 232 21Q244 21 250 22Q327 35 374 112Q389 137 409 196T430 306Z"></path>
<path stroke-width="10" id="E1-MJMAINB-75" d="M40 442L134 446Q228 450 229 450H235V273V165Q235 90 238 74T254 52Q268 46 304 46H319Q352 46 380 67T419 121L420 123Q424 135 425 199Q425 201 425 207Q425 233 425 249V316Q425 354 423 363T410 376Q396 380 369 380H356V442L554 450V267Q554 84 556 79Q561 62 610 62H623V31Q623 0 622 0Q603 0 527 -3T432 -6Q431 -6 431 25V56L420 45Q373 6 332 -1Q313 -6 281 -6Q208 -6 165 14T109 87L107 98L106 230Q106 358 104 366Q96 380 50 380H37V442H40Z"></path>
<path stroke-width="10" id="E1-MJMATHI-74" d="M26 385Q19 392 19 395Q19 399 22 411T27 425Q29 430 36 430T87 431H140L159 511Q162 522 166 540T173 566T179 586T187 603T197 615T211 624T229 626Q247 625 254 615T261 596Q261 589 252 549T232 470L222 433Q222 431 272 431H323Q330 424 330 420Q330 398 317 385H210L174 240Q135 80 135 68Q135 26 162 26Q197 26 230 60T283 144Q285 150 288 151T303 153H307Q322 153 322 145Q322 142 319 133Q314 117 301 95T267 48T216 6T155 -11Q125 -11 98 4T59 56Q57 64 57 83V101L92 241Q127 382 128 383Q128 385 77 385H26Z"></path>
<path stroke-width="10" id="E1-MJSZ4-E152" d="M-24 327L-18 333H-1Q11 333 15 333T22 329T27 322T35 308T54 284Q115 203 225 162T441 120Q454 120 457 117T460 95V60V28Q460 8 457 4T442 0Q355 0 260 36Q75 118 -16 278L-24 292V327Z"></path>
<path stroke-width="10" id="E1-MJSZ4-E153" d="M-10 60V95Q-10 113 -7 116T9 120Q151 120 250 171T396 284Q404 293 412 305T424 324T431 331Q433 333 451 333H468L474 327V292L466 278Q375 118 190 36Q95 0 8 0Q-5 0 -7 3T-10 24V60Z"></path>
<path stroke-width="10" id="E1-MJSZ4-E151" d="M-10 60Q-10 104 -10 111T-5 118Q-1 120 10 120Q96 120 190 84Q375 2 466 -158L474 -172V-207L468 -213H451H447Q437 -213 434 -213T428 -209T423 -202T414 -187T396 -163Q331 -82 224 -41T9 0Q-4 0 -7 3T-10 25V60Z"></path>
<path stroke-width="10" id="E1-MJSZ4-E150" d="M-18 -213L-24 -207V-172L-16 -158Q75 2 260 84Q334 113 415 119Q418 119 427 119T440 120Q454 120 457 117T460 98V60V25Q460 7 457 4T441 0Q308 0 193 -55T25 -205Q21 -211 18 -212T-1 -213H-18Z"></path>
<path stroke-width="10" id="E1-MJMAIN-56" d="M114 620Q113 621 110 624T107 627T103 630T98 632T91 634T80 635T67 636T48 637H19V683H28Q46 680 152 680Q273 680 294 683H305V637H284Q223 634 223 620Q223 618 313 372T404 126L490 358Q575 588 575 597Q575 616 554 626T508 637H503V683H512Q527 680 627 680Q718 680 724 683H730V637H723Q648 637 627 596Q627 595 515 291T401 -14Q396 -22 382 -22H374H367Q353 -22 348 -14Q346 -12 231 303Q114 617 114 620Z"></path>
<path stroke-width="10" id="E1-MJMAIN-61" d="M137 305T115 305T78 320T63 359Q63 394 97 421T218 448Q291 448 336 416T396 340Q401 326 401 309T402 194V124Q402 76 407 58T428 40Q443 40 448 56T453 109V145H493V106Q492 66 490 59Q481 29 455 12T400 -6T353 12T329 54V58L327 55Q325 52 322 49T314 40T302 29T287 17T269 6T247 -2T221 -8T190 -11Q130 -11 82 20T34 107Q34 128 41 147T68 188T116 225T194 253T304 268H318V290Q318 324 312 340Q290 411 215 411Q197 411 181 410T156 406T148 403Q170 388 170 359Q170 334 154 320ZM126 106Q126 75 150 51T209 26Q247 26 276 49T315 109Q317 116 318 175Q318 233 317 233Q309 233 296 232T251 223T193 203T147 166T126 106Z"></path>
<path stroke-width="10" id="E1-MJMAIN-72" d="M36 46H50Q89 46 97 60V68Q97 77 97 91T98 122T98 161T98 203Q98 234 98 269T98 328L97 351Q94 370 83 376T38 385H20V408Q20 431 22 431L32 432Q42 433 60 434T96 436Q112 437 131 438T160 441T171 442H174V373Q213 441 271 441H277Q322 441 343 419T364 373Q364 352 351 337T313 322Q288 322 276 338T263 372Q263 381 265 388T270 400T273 405Q271 407 250 401Q234 393 226 386Q179 341 179 207V154Q179 141 179 127T179 101T180 81T180 66V61Q181 59 183 57T188 54T193 51T200 49T207 48T216 47T225 47T235 46T245 46H276V0H267Q249 3 140 3Q37 3 28 0H20V46H36Z"></path>
<path stroke-width="10" id="E1-MJMAIN-69" d="M69 609Q69 637 87 653T131 669Q154 667 171 652T188 609Q188 579 171 564T129 549Q104 549 87 564T69 609ZM247 0Q232 3 143 3Q132 3 106 3T56 1L34 0H26V46H42Q70 46 91 49Q100 53 102 60T104 102V205V293Q104 345 102 359T88 378Q74 385 41 385H30V408Q30 431 32 431L42 432Q52 433 70 434T106 436Q123 437 142 438T171 441T182 442H185V62Q190 52 197 50T232 46H255V0H247Z"></path>
<path stroke-width="10" id="E1-MJMAIN-74" d="M27 422Q80 426 109 478T141 600V615H181V431H316V385H181V241Q182 116 182 100T189 68Q203 29 238 29Q282 29 292 100Q293 108 293 146V181H333V146V134Q333 57 291 17Q264 -10 221 -10Q187 -10 162 2T124 33T105 68T98 100Q97 107 97 248V385H18V422H27Z"></path>
<path stroke-width="10" id="E1-MJMAIN-6F" d="M28 214Q28 309 93 378T250 448Q340 448 405 380T471 215Q471 120 407 55T250 -10Q153 -10 91 57T28 214ZM250 30Q372 30 372 193V225V250Q372 272 371 288T364 326T348 362T317 390T268 410Q263 411 252 411Q222 411 195 399Q152 377 139 338T126 246V226Q126 130 145 91Q177 30 250 30Z"></path>
<path stroke-width="10" id="E1-MJMAIN-6E" d="M41 46H55Q94 46 102 60V68Q102 77 102 91T102 122T103 161T103 203Q103 234 103 269T102 328V351Q99 370 88 376T43 385H25V408Q25 431 27 431L37 432Q47 433 65 434T102 436Q119 437 138 438T167 441T178 442H181V402Q181 364 182 364T187 369T199 384T218 402T247 421T285 437Q305 442 336 442Q450 438 463 329Q464 322 464 190V104Q464 66 466 59T477 49Q498 46 526 46H542V0H534L510 1Q487 2 460 2T422 3Q319 3 310 0H302V46H318Q379 46 379 62Q380 64 380 200Q379 335 378 343Q372 371 358 385T334 402T308 404Q263 404 229 370Q202 343 195 315T187 232V168V108Q187 78 188 68T191 55T200 49Q221 46 249 46H265V0H257L234 1Q210 2 183 2T145 3Q42 3 33 0H25V46H41Z"></path>
<path stroke-width="10" id="E1-MJMAIN-2B" d="M56 237T56 250T70 270H369V420L370 570Q380 583 389 583Q402 583 409 568V270H707Q722 262 722 250T707 230H409V-68Q401 -82 391 -82H389H387Q375 -82 369 -68V230H70Q56 237 56 250Z"></path>
<path stroke-width="10" id="E1-MJMAIN-28" d="M94 250Q94 319 104 381T127 488T164 576T202 643T244 695T277 729T302 750H315H319Q333 750 333 741Q333 738 316 720T275 667T226 581T184 443T167 250T184 58T225 -81T274 -167T316 -220T333 -241Q333 -250 318 -250H315H302L274 -226Q180 -141 137 -14T94 250Z"></path>
<path stroke-width="10" id="E1-MJMAIN-22C5" d="M78 250Q78 274 95 292T138 310Q162 310 180 294T199 251Q199 226 182 208T139 190T96 207T78 250Z"></path>
<path stroke-width="10" id="E1-MJMAIN-2207" d="M46 676Q46 679 51 683H781Q786 679 786 676Q786 674 617 326T444 -26Q439 -33 416 -33T388 -26Q385 -22 216 326T46 676ZM697 596Q697 597 445 597T193 596Q195 591 319 336T445 80L697 596Z"></path>
<path stroke-width="10" id="E1-MJMAIN-29" d="M60 749L64 750Q69 750 74 750H86L114 726Q208 641 251 514T294 250Q294 182 284 119T261 12T224 -76T186 -143T145 -194T113 -227T90 -246Q87 -249 86 -250H74Q66 -250 63 -250T58 -247T55 -238Q56 -237 66 -225Q221 -64 221 250T66 725Q56 737 55 738Q55 746 60 749Z"></path>
<path stroke-width="10" id="E1-MJSZ4-E154" d="M-10 0V120H410V0H-10Z"></path>
<path stroke-width="10" id="E1-MJMAIN-43" d="M56 342Q56 428 89 500T174 615T283 681T391 705Q394 705 400 705T408 704Q499 704 569 636L582 624L612 663Q639 700 643 704Q644 704 647 704T653 705H657Q660 705 666 699V419L660 413H626Q620 419 619 430Q610 512 571 572T476 651Q457 658 426 658Q322 658 252 588Q173 509 173 342Q173 221 211 151Q232 111 263 84T328 45T384 29T428 24Q517 24 571 93T626 244Q626 251 632 257H660L666 251V236Q661 133 590 56T403 -21Q262 -21 159 83T56 342Z"></path>
<path stroke-width="10" id="E1-MJMAIN-76" d="M338 431Q344 429 422 429Q479 429 503 431H508V385H497Q439 381 423 345Q421 341 356 172T288 -2Q283 -11 263 -11Q244 -11 239 -2Q99 359 98 364Q93 378 82 381T43 385H19V431H25L33 430Q41 430 53 430T79 430T104 429T122 428Q217 428 232 431H240V385H226Q187 384 184 370Q184 366 235 234L286 102L377 341V349Q377 363 367 372T349 383T335 385H331V431H338Z"></path>
<path stroke-width="10" id="E1-MJMAIN-65" d="M28 218Q28 273 48 318T98 391T163 433T229 448Q282 448 320 430T378 380T406 316T415 245Q415 238 408 231H126V216Q126 68 226 36Q246 30 270 30Q312 30 342 62Q359 79 369 104L379 128Q382 131 395 131H398Q415 131 415 121Q415 117 412 108Q393 53 349 21T250 -11Q155 -11 92 58T28 218ZM333 275Q322 403 238 411H236Q228 411 220 410T195 402T166 381T143 340T127 274V267H333V275Z"></path>
<path stroke-width="10" id="E1-MJMAIN-63" d="M370 305T349 305T313 320T297 358Q297 381 312 396Q317 401 317 402T307 404Q281 408 258 408Q209 408 178 376Q131 329 131 219Q131 137 162 90Q203 29 272 29Q313 29 338 55T374 117Q376 125 379 127T395 129H409Q415 123 415 120Q415 116 411 104T395 71T366 33T318 2T249 -11Q163 -11 99 53T34 214Q34 318 99 383T250 448T370 421T404 357Q404 334 387 320Z"></path>
<path stroke-width="10" id="E1-MJMAIN-49" d="M328 0Q307 3 180 3T32 0H21V46H43Q92 46 106 49T126 60Q128 63 128 342Q128 620 126 623Q122 628 118 630T96 635T43 637H21V683H32Q53 680 180 680T328 683H339V637H317Q268 637 254 634T234 623Q232 620 232 342Q232 63 234 60Q238 55 242 53T264 48T317 46H339V0H328Z"></path>
<path stroke-width="10" id="E1-MJMAIN-70" d="M36 -148H50Q89 -148 97 -134V-126Q97 -119 97 -107T97 -77T98 -38T98 6T98 55T98 106Q98 140 98 177T98 243T98 296T97 335T97 351Q94 370 83 376T38 385H20V408Q20 431 22 431L32 432Q42 433 61 434T98 436Q115 437 135 438T165 441T176 442H179V416L180 390L188 397Q247 441 326 441Q407 441 464 377T522 216Q522 115 457 52T310 -11Q242 -11 190 33L182 40V-45V-101Q182 -128 184 -134T195 -145Q216 -148 244 -148H260V-194H252L228 -193Q205 -192 178 -192T140 -191Q37 -191 28 -194H20V-148H36ZM424 218Q424 292 390 347T305 402Q234 402 182 337V98Q222 26 294 26Q345 26 384 80T424 218Z"></path>
<path stroke-width="10" id="E1-MJMAIN-6C" d="M42 46H56Q95 46 103 60V68Q103 77 103 91T103 124T104 167T104 217T104 272T104 329Q104 366 104 407T104 482T104 542T103 586T103 603Q100 622 89 628T44 637H26V660Q26 683 28 683L38 684Q48 685 67 686T104 688Q121 689 141 690T171 693T182 694H185V379Q185 62 186 60Q190 52 198 49Q219 46 247 46H263V0H255L232 1Q209 2 183 2T145 3T107 3T57 1L34 0H26V46H42Z"></path>
<path stroke-width="10" id="E1-MJMAIN-75" d="M383 58Q327 -10 256 -10H249Q124 -10 105 89Q104 96 103 226Q102 335 102 348T96 369Q86 385 36 385H25V408Q25 431 27 431L38 432Q48 433 67 434T105 436Q122 437 142 438T172 441T184 442H187V261Q188 77 190 64Q193 49 204 40Q224 26 264 26Q290 26 311 35T343 58T363 90T375 120T379 144Q379 145 379 161T380 201T380 248V315Q380 361 370 372T320 385H302V431Q304 431 378 436T457 442H464V264Q464 84 465 81Q468 61 479 55T524 46H542V0Q540 0 467 -5T390 -11H383V58Z"></path>
<path stroke-width="10" id="E1-MJMAIN-6D" d="M41 46H55Q94 46 102 60V68Q102 77 102 91T102 122T103 161T103 203Q103 234 103 269T102 328V351Q99 370 88 376T43 385H25V408Q25 431 27 431L37 432Q47 433 65 434T102 436Q119 437 138 438T167 441T178 442H181V402Q181 364 182 364T187 369T199 384T218 402T247 421T285 437Q305 442 336 442Q351 442 364 440T387 434T406 426T421 417T432 406T441 395T448 384T452 374T455 366L457 361L460 365Q463 369 466 373T475 384T488 397T503 410T523 422T546 432T572 439T603 442Q729 442 740 329Q741 322 741 190V104Q741 66 743 59T754 49Q775 46 803 46H819V0H811L788 1Q764 2 737 2T699 3Q596 3 587 0H579V46H595Q656 46 656 62Q657 64 657 200Q656 335 655 343Q649 371 635 385T611 402T585 404Q540 404 506 370Q479 343 472 315T464 232V168V108Q464 78 465 68T468 55T477 49Q498 46 526 46H542V0H534L510 1Q487 2 460 2T422 3Q319 3 310 0H302V46H318Q379 46 379 62Q380 64 380 200Q379 335 378 343Q372 371 358 385T334 402T308 404Q263 404 229 370Q202 343 195 315T187 232V168V108Q187 78 188 68T191 55T200 49Q221 46 249 46H265V0H257L234 1Q210 2 183 2T145 3Q42 3 33 0H25V46H41Z"></path>
<path stroke-width="10" id="E1-MJMAIN-2212" d="M84 237T84 250T98 270H679Q694 262 694 250T679 230H98Q84 237 84 250Z"></path>
<path stroke-width="10" id="E1-MJMATHI-3BD" d="M74 431Q75 431 146 436T219 442Q231 442 231 434Q231 428 185 241L137 51H140L150 55Q161 59 177 67T214 86T261 119T312 165Q410 264 445 394Q458 442 496 442Q509 442 519 434T530 411Q530 390 516 352T469 262T388 162T267 70T106 5Q81 -2 71 -2Q66 -2 59 -1T51 1Q45 5 45 11Q45 13 88 188L132 364Q133 377 125 380T86 385H65Q59 391 59 393T61 412Q65 431 74 431Z"></path>
<path stroke-width="10" id="E1-MJMAIN-32" d="M109 429Q82 429 66 447T50 491Q50 562 103 614T235 666Q326 666 387 610T449 465Q449 422 429 383T381 315T301 241Q265 210 201 149L142 93L218 92Q375 92 385 97Q392 99 409 186V189H449V186Q448 183 436 95T421 3V0H50V19V31Q50 38 56 46T86 81Q115 113 136 137Q145 147 170 174T204 211T233 244T261 278T284 308T305 340T320 369T333 401T340 431T343 464Q343 527 309 573T212 619Q179 619 154 602T119 569T109 550Q109 549 114 549Q132 549 151 535T170 489Q170 464 154 447T109 429Z"></path>
<path stroke-width="10" id="E1-MJMAIN-44" d="M130 622Q123 629 119 631T103 634T60 637H27V683H228Q399 682 419 682T461 676Q504 667 546 641T626 573T685 470T708 336Q708 210 634 116T442 3Q429 1 228 0H27V46H60Q102 47 111 49T130 61V622ZM593 338Q593 439 571 501T493 602Q439 637 355 637H322H294Q238 637 234 628Q231 624 231 344Q231 62 232 59Q233 49 248 48T339 46H350Q456 46 515 95Q561 133 577 191T593 338Z"></path>
<path stroke-width="10" id="E1-MJMAIN-66" d="M273 0Q255 3 146 3Q43 3 34 0H26V46H42Q70 46 91 49Q99 52 103 60Q104 62 104 224V385H33V431H104V497L105 564L107 574Q126 639 171 668T266 704Q267 704 275 704T289 705Q330 702 351 679T372 627Q372 604 358 590T321 576T284 590T270 627Q270 647 288 667H284Q280 668 273 668Q245 668 223 647T189 592Q183 572 182 497V431H293V385H185V225Q185 63 186 61T189 57T194 54T199 51T206 49T213 48T222 47T231 47T241 46T251 46H282V0H273Z"></path>
<path stroke-width="10" id="E1-MJMAIN-73" d="M295 316Q295 356 268 385T190 414Q154 414 128 401Q98 382 98 349Q97 344 98 336T114 312T157 287Q175 282 201 278T245 269T277 256Q294 248 310 236T342 195T359 133Q359 71 321 31T198 -10H190Q138 -10 94 26L86 19L77 10Q71 4 65 -1L54 -11H46H42Q39 -11 33 -5V74V132Q33 153 35 157T45 162H54Q66 162 70 158T75 146T82 119T101 77Q136 26 198 26Q295 26 295 104Q295 133 277 151Q257 175 194 187T111 210Q75 227 54 256T33 318Q33 357 50 384T93 424T143 442T187 447H198Q238 447 268 432L283 424L292 431Q302 440 314 448H322H326Q329 448 335 442V310L329 304H301Q295 310 295 316Z"></path>
<path stroke-width="10" id="E1-MJMAIN-3D" d="M56 347Q56 360 70 367H707Q722 359 722 347Q722 336 708 328L390 327H72Q56 332 56 347ZM56 153Q56 168 72 173H708Q722 163 722 153Q722 140 707 133H70Q56 140 56 153Z"></path>
<path stroke-width="10" id="E1-MJMATHI-77" d="M580 385Q580 406 599 424T641 443Q659 443 674 425T690 368Q690 339 671 253Q656 197 644 161T609 80T554 12T482 -11Q438 -11 404 5T355 48Q354 47 352 44Q311 -11 252 -11Q226 -11 202 -5T155 14T118 53T104 116Q104 170 138 262T173 379Q173 380 173 381Q173 390 173 393T169 400T158 404H154Q131 404 112 385T82 344T65 302T57 280Q55 278 41 278H27Q21 284 21 287Q21 293 29 315T52 366T96 418T161 441Q204 441 227 416T250 358Q250 340 217 250T184 111Q184 65 205 46T258 26Q301 26 334 87L339 96V119Q339 122 339 128T340 136T341 143T342 152T345 165T348 182T354 206T362 238T373 281Q402 395 406 404Q419 431 449 431Q468 431 475 421T483 402Q483 389 454 274T422 142Q420 131 420 107V100Q420 85 423 71T442 42T487 26Q558 26 600 148Q609 171 620 213T632 273Q632 306 619 325T593 357T580 385Z"></path>
<path stroke-width="10" id="E1-MJMAIN-67" d="M329 409Q373 453 429 453Q459 453 472 434T485 396Q485 382 476 371T449 360Q416 360 412 390Q410 404 415 411Q415 412 416 414V415Q388 412 363 393Q355 388 355 386Q355 385 359 381T368 369T379 351T388 325T392 292Q392 230 343 187T222 143Q172 143 123 171Q112 153 112 133Q112 98 138 81Q147 75 155 75T227 73Q311 72 335 67Q396 58 431 26Q470 -13 470 -72Q470 -139 392 -175Q332 -206 250 -206Q167 -206 107 -175Q29 -140 29 -75Q29 -39 50 -15T92 18L103 24Q67 55 67 108Q67 155 96 193Q52 237 52 292Q52 355 102 398T223 442Q274 442 318 416L329 409ZM299 343Q294 371 273 387T221 404Q192 404 171 388T145 343Q142 326 142 292Q142 248 149 227T179 192Q196 182 222 182Q244 182 260 189T283 207T294 227T299 242Q302 258 302 292T299 343ZM403 -75Q403 -50 389 -34T348 -11T299 -2T245 0H218Q151 0 138 -6Q118 -15 107 -34T95 -74Q95 -84 101 -97T122 -127T170 -155T250 -167Q319 -167 361 -139T403 -75Z"></path>
<path stroke-width="10" id="E1-MJMAINB-67" d="M50 300Q50 368 105 409T255 450Q328 450 376 426L388 420Q435 455 489 455Q517 455 533 441T554 414T558 389Q558 367 544 353T508 339Q484 339 471 354T458 387Q458 397 462 400Q464 401 461 400Q459 400 454 399Q429 392 427 390Q454 353 459 328Q461 315 461 300Q461 240 419 202Q364 149 248 149Q185 149 136 172Q129 158 129 148Q129 105 170 93Q176 91 263 91Q273 91 298 91T334 91T366 89T400 85T432 77T466 64Q544 22 544 -69Q544 -114 506 -145Q438 -201 287 -201Q149 -201 90 -161T30 -70Q30 -58 33 -47T42 -27T54 -13T69 -1T82 6T94 12T101 15Q66 57 66 106Q66 151 90 187L97 197L89 204Q50 243 50 300ZM485 403H492Q491 404 488 404L485 403V403ZM255 200Q279 200 295 206T319 219T331 242T335 268T336 300Q336 337 333 352T317 380Q298 399 255 399Q228 399 211 392T187 371T178 345T176 312V300V289Q176 235 194 219Q215 200 255 200ZM287 -150Q357 -150 400 -128T443 -71Q443 -65 442 -61T436 -50T420 -37T389 -27T339 -21L308 -20Q276 -20 253 -20Q190 -20 180 -20T156 -26Q130 -38 130 -69Q130 -105 173 -127T287 -150Z"></path>
<path stroke-width="10" id="E1-MJMAIN-45" d="M128 619Q121 626 117 628T101 631T58 634H25V680H597V676Q599 670 611 560T625 444V440H585V444Q584 447 582 465Q578 500 570 526T553 571T528 601T498 619T457 629T411 633T353 634Q266 634 251 633T233 622Q233 622 233 621Q232 619 232 497V376H286Q359 378 377 385Q413 401 416 469Q416 471 416 473V493H456V213H416V233Q415 268 408 288T383 317T349 328T297 330Q290 330 286 330H232V196V114Q232 57 237 52Q243 47 289 47H340H391Q428 47 452 50T505 62T552 92T584 146Q594 172 599 200T607 247T612 270V273H652V270Q651 267 632 137T610 3V0H25V46H58Q100 47 109 49T128 61V619Z"></path>
<path stroke-width="10" id="E1-MJMAIN-78" d="M201 0Q189 3 102 3Q26 3 17 0H11V46H25Q48 47 67 52T96 61T121 78T139 96T160 122T180 150L226 210L168 288Q159 301 149 315T133 336T122 351T113 363T107 370T100 376T94 379T88 381T80 383Q74 383 44 385H16V431H23Q59 429 126 429Q219 429 229 431H237V385Q201 381 201 369Q201 367 211 353T239 315T268 274L272 270L297 304Q329 345 329 358Q329 364 327 369T322 376T317 380T310 384L307 385H302V431H309Q324 428 408 428Q487 428 493 431H499V385H492Q443 385 411 368Q394 360 377 341T312 257L296 236L358 151Q424 61 429 57T446 50Q464 46 499 46H516V0H510H502Q494 1 482 1T457 2T432 2T414 3Q403 3 377 3T327 1L304 0H295V46H298Q309 46 320 51T331 63Q331 65 291 120L250 175Q249 174 219 133T185 88Q181 83 181 74Q181 63 188 55T206 46Q208 46 208 23V0H201Z"></path>
<path stroke-width="10" id="E1-MJMAIN-2E" d="M78 60Q78 84 95 102T138 120Q162 120 180 104T199 61Q199 36 182 18T139 0T96 17T78 60Z"></path>
</defs>
<g stroke="currentColor" fill="currentColor" stroke-width="0" transform="matrix(1 0 0 -1 0 0)">
<g transform="translate(809,0)">
<g transform="translate(45,0)">
<g transform="translate(120,0)">
<rect stroke="none" width="1336" height="60" x="0" y="220"></rect>
<g transform="translate(60,676)">
 <use xlink:href="#E1-MJMAIN-2202" x="0" y="0"></use>
 <use xlink:href="#E1-MJMAINB-75" x="572" y="0"></use>
</g>
<g transform="translate(199,-745)">
 <use xlink:href="#E1-MJMAIN-2202" x="0" y="0"></use>
 <use xlink:href="#E1-MJMATHI-74" x="572" y="0"></use>
</g>
</g>
</g>
<g transform="translate(0,-1300)">
 <use xlink:href="#E1-MJSZ4-E152" x="19" y="0"></use>
<g transform="translate(390,0)">
 <use xlink:href="#E1-MJSZ4-E151"></use>
 <use xlink:href="#E1-MJSZ4-E150" x="455" y="0"></use>
</g>
 <use xlink:href="#E1-MJSZ4-E153" x="1211" y="0"></use>
</g>
</g>
<g transform="translate(0,-2123)">
<g transform="translate(167,0)">
<g transform="translate(-11,0)">
<g transform="translate(0,-57)">
 <use transform="scale(0.707)" xlink:href="#E1-MJMAIN-56"></use>
 <use transform="scale(0.707)" xlink:href="#E1-MJMAIN-61" x="754" y="0"></use>
 <use transform="scale(0.707)" xlink:href="#E1-MJMAIN-72" x="1260" y="0"></use>
 <use transform="scale(0.707)" xlink:href="#E1-MJMAIN-69" x="1657" y="0"></use>
 <use transform="scale(0.707)" xlink:href="#E1-MJMAIN-61" x="1940" y="0"></use>
 <use transform="scale(0.707)" xlink:href="#E1-MJMAIN-74" x="2445" y="0"></use>
 <use transform="scale(0.707)" xlink:href="#E1-MJMAIN-69" x="2839" y="0"></use>
 <use transform="scale(0.707)" xlink:href="#E1-MJMAIN-6F" x="3122" y="0"></use>
 <use transform="scale(0.707)" xlink:href="#E1-MJMAIN-6E" x="3627" y="0"></use>
</g>
</g>
</g>
</g>
 <use xlink:href="#E1-MJMAIN-2B" x="3507" y="0"></use>
<g transform="translate(4512,0)">
<g transform="translate(97,0)">
 <use xlink:href="#E1-MJMAIN-28" x="0" y="0"></use>
 <use xlink:href="#E1-MJMAINB-75" x="394" y="0"></use>
 <use xlink:href="#E1-MJMAIN-22C5" x="1260" y="0"></use>
 <use xlink:href="#E1-MJMAIN-2207" x="1765" y="0"></use>
 <use xlink:href="#E1-MJMAIN-29" x="2603" y="0"></use>
 <use xlink:href="#E1-MJMAINB-75" x="2997" y="0"></use>
<g transform="translate(12,-783)">
 <use xlink:href="#E1-MJSZ4-E152" x="19" y="0"></use>
<g transform="translate(494.4966931216931,0) scale(2.0993386243386243,1)">
 <use xlink:href="#E1-MJSZ4-E154"></use>
</g>
<g transform="translate(1365,0)">
 <use xlink:href="#E1-MJSZ4-E151"></use>
 <use xlink:href="#E1-MJSZ4-E150" x="455" y="0"></use>
</g>
<g transform="translate(2286.2189153439153,0) scale(2.0993386243386243,1)">
 <use xlink:href="#E1-MJSZ4-E154"></use>
</g>
 <use xlink:href="#E1-MJSZ4-E153" x="3162" y="0"></use>
</g>
</g>
<g transform="translate(0,-1614)">
<g transform="translate(167,0)">
<g transform="translate(-11,0)">
<g transform="translate(0,-66)">
 <use transform="scale(0.707)" xlink:href="#E1-MJMAIN-43"></use>
 <use transform="scale(0.707)" xlink:href="#E1-MJMAIN-6F" x="727" y="0"></use>
 <use transform="scale(0.707)" xlink:href="#E1-MJMAIN-6E" x="1232" y="0"></use>
 <use transform="scale(0.707)" xlink:href="#E1-MJMAIN-76" x="1793" y="0"></use>
 <use transform="scale(0.707)" xlink:href="#E1-MJMAIN-65" x="2326" y="0"></use>
 <use transform="scale(0.707)" xlink:href="#E1-MJMAIN-63" x="2775" y="0"></use>
 <use transform="scale(0.707)" xlink:href="#E1-MJMAIN-74" x="3224" y="0"></use>
 <use transform="scale(0.707)" xlink:href="#E1-MJMAIN-69" x="3618" y="0"></use>
 <use transform="scale(0.707)" xlink:href="#E1-MJMAIN-6F" x="3901" y="0"></use>
 <use transform="scale(0.707)" xlink:href="#E1-MJMAIN-6E" x="4406" y="0"></use>
</g>
</g>
</g>
</g>
</g>
<g transform="translate(8,1670)">
 <use transform="scale(0.707)" xlink:href="#E1-MJSZ4-E150" x="19" y="0"></use>
<g transform="translate(384.0263320336396,0) scale(11.819049414073286,1)">
 <use transform="scale(0.707)" xlink:href="#E1-MJSZ4-E154"></use>
</g>
<g transform="translate(3852,0)">
 <use transform="scale(0.707)" xlink:href="#E1-MJSZ4-E153"></use>
 <use transform="scale(0.707)" xlink:href="#E1-MJSZ4-E152" x="455" y="0"></use>
</g>
<g transform="translate(4537.572097818845,0) scale(11.819049414073286,1)">
 <use transform="scale(0.707)" xlink:href="#E1-MJSZ4-E154"></use>
</g>
 <use transform="scale(0.707)" xlink:href="#E1-MJSZ4-E151" x="11327" y="0"></use>
</g>
<g transform="translate(982,2307)">
 <use transform="scale(0.707)" xlink:href="#E1-MJMAIN-49"></use>
 <use transform="scale(0.707)" xlink:href="#E1-MJMAIN-6E" x="366" y="0"></use>
 <use transform="scale(0.707)" xlink:href="#E1-MJMAIN-65" x="927" y="0"></use>
 <use transform="scale(0.707)" xlink:href="#E1-MJMAIN-72" x="1376" y="0"></use>
 <use transform="scale(0.707)" xlink:href="#E1-MJMAIN-74" x="1773" y="0"></use>
 <use transform="scale(0.707)" xlink:href="#E1-MJMAIN-69" x="2167" y="0"></use>
 <use transform="scale(0.707)" xlink:href="#E1-MJMAIN-61" x="2450" y="0"></use>
 <use transform="scale(0.707)" xlink:href="#E1-MJMAIN-28" x="3308" y="0"></use>
 <use transform="scale(0.707)" xlink:href="#E1-MJMAIN-70" x="3702" y="0"></use>
 <use transform="scale(0.707)" xlink:href="#E1-MJMAIN-65" x="4263" y="0"></use>
 <use transform="scale(0.707)" xlink:href="#E1-MJMAIN-72" x="4712" y="0"></use>
 <use transform="scale(0.707)" xlink:href="#E1-MJMAIN-76" x="5463" y="0"></use>
 <use transform="scale(0.707)" xlink:href="#E1-MJMAIN-6F" x="5996" y="0"></use>
 <use transform="scale(0.707)" xlink:href="#E1-MJMAIN-6C" x="6501" y="0"></use>
 <use transform="scale(0.707)" xlink:href="#E1-MJMAIN-75" x="6784" y="0"></use>
 <use transform="scale(0.707)" xlink:href="#E1-MJMAIN-6D" x="7345" y="0"></use>
 <use transform="scale(0.707)" xlink:href="#E1-MJMAIN-65" x="8183" y="0"></use>
 <use transform="scale(0.707)" xlink:href="#E1-MJMAIN-29" x="8632" y="0"></use>
</g>
<g transform="translate(8348,0)">
 <use xlink:href="#E1-MJMAIN-2212" x="0" y="0"></use>
<g transform="translate(783,0)">
<g transform="translate(171,0)">
 <use xlink:href="#E1-MJMATHI-3BD" x="0" y="0"></use>
<g transform="translate(535,0)">
 <use xlink:href="#E1-MJMAIN-2207" x="0" y="0"></use>
 <use transform="scale(0.707)" xlink:href="#E1-MJMAIN-32" x="1185" y="583"></use>
</g>
 <use xlink:href="#E1-MJMAINB-75" x="1830" y="0"></use>
<g transform="translate(12,-566)">
 <use xlink:href="#E1-MJSZ4-E152" x="19" y="0"></use>
<g transform="translate(487.54814836011434,0) scale(0.7096296720228652,1)">
 <use xlink:href="#E1-MJSZ4-E154"></use>
</g>
<g transform="translate(782,0)">
 <use xlink:href="#E1-MJSZ4-E151"></use>
 <use xlink:href="#E1-MJSZ4-E150" x="455" y="0"></use>
</g>
<g transform="translate(1695.5926106097177,0) scale(0.7096296720228652,1)">
 <use xlink:href="#E1-MJSZ4-E154"></use>
</g>
 <use xlink:href="#E1-MJSZ4-E153" x="1995" y="0"></use>
</g>
</g>
<g transform="translate(0,-1462)">
 <use transform="scale(0.707)" xlink:href="#E1-MJMAIN-44"></use>
 <use transform="scale(0.707)" xlink:href="#E1-MJMAIN-69" x="769" y="0"></use>
 <use transform="scale(0.707)" xlink:href="#E1-MJMAIN-66" x="1052" y="0"></use>
 <use transform="scale(0.707)" xlink:href="#E1-MJMAIN-66" x="1363" y="0"></use>
 <use transform="scale(0.707)" xlink:href="#E1-MJMAIN-75" x="1674" y="0"></use>
 <use transform="scale(0.707)" xlink:href="#E1-MJMAIN-73" x="2235" y="0"></use>
 <use transform="scale(0.707)" xlink:href="#E1-MJMAIN-69" x="2634" y="0"></use>
 <use transform="scale(0.707)" xlink:href="#E1-MJMAIN-6F" x="2917" y="0"></use>
 <use transform="scale(0.707)" xlink:href="#E1-MJMAIN-6E" x="3422" y="0"></use>
</g>
</g>
 <use xlink:href="#E1-MJMAIN-3D" x="3877" y="0"></use>
<g transform="translate(4937,0)">
<g transform="translate(233,0)">
 <use xlink:href="#E1-MJMAIN-2212" x="0" y="0"></use>
 <use xlink:href="#E1-MJMAIN-2207" x="783" y="0"></use>
 <use xlink:href="#E1-MJMATHI-77" x="1621" y="0"></use>
<g transform="translate(12,-566)">
 <use xlink:href="#E1-MJSZ4-E152" x="19" y="0"></use>
<g transform="translate(486.76190476190476,0) scale(0.5523809523809524,1)">
 <use xlink:href="#E1-MJSZ4-E154"></use>
</g>
<g transform="translate(716,0)">
 <use xlink:href="#E1-MJSZ4-E151"></use>
 <use xlink:href="#E1-MJSZ4-E150" x="455" y="0"></use>
</g>
<g transform="translate(1628.7619047619048,0) scale(0.5523809523809524,1)">
 <use xlink:href="#E1-MJSZ4-E154"></use>
</g>
 <use xlink:href="#E1-MJSZ4-E153" x="1863" y="0"></use>
</g>
</g>
<g transform="translate(0,-1659)">
<g transform="translate(167,0)">
<g transform="translate(-11,0)">
<g transform="translate(0,204)">
 <use transform="scale(0.707)" xlink:href="#E1-MJMAIN-49"></use>
 <use transform="scale(0.707)" xlink:href="#E1-MJMAIN-6E" x="366" y="0"></use>
 <use transform="scale(0.707)" xlink:href="#E1-MJMAIN-74" x="927" y="0"></use>
 <use transform="scale(0.707)" xlink:href="#E1-MJMAIN-65" x="1321" y="0"></use>
 <use transform="scale(0.707)" xlink:href="#E1-MJMAIN-72" x="1770" y="0"></use>
 <use transform="scale(0.707)" xlink:href="#E1-MJMAIN-6E" x="2167" y="0"></use>
 <use transform="scale(0.707)" xlink:href="#E1-MJMAIN-61" x="2728" y="0"></use>
 <use transform="scale(0.707)" xlink:href="#E1-MJMAIN-6C" x="3233" y="0"></use>
</g>
<g transform="translate(267,-335)">
 <use transform="scale(0.707)" xlink:href="#E1-MJMAIN-73"></use>
 <use transform="scale(0.707)" xlink:href="#E1-MJMAIN-6F" x="399" y="0"></use>
 <use transform="scale(0.707)" xlink:href="#E1-MJMAIN-75" x="904" y="0"></use>
 <use transform="scale(0.707)" xlink:href="#E1-MJMAIN-72" x="1465" y="0"></use>
 <use transform="scale(0.707)" xlink:href="#E1-MJMAIN-63" x="1861" y="0"></use>
 <use transform="scale(0.707)" xlink:href="#E1-MJMAIN-65" x="2310" y="0"></use>
</g>
</g>
</g>
</g>
</g>
<g transform="translate(8,1159)">
 <use transform="scale(0.707)" xlink:href="#E1-MJSZ4-E150" x="19" y="0"></use>
<g transform="translate(380.45248639155756,0) scale(10.808213218701207,1)">
 <use transform="scale(0.707)" xlink:href="#E1-MJSZ4-E154"></use>
</g>
<g transform="translate(3552,0)">
 <use transform="scale(0.707)" xlink:href="#E1-MJSZ4-E153"></use>
 <use transform="scale(0.707)" xlink:href="#E1-MJSZ4-E152" x="455" y="0"></use>
</g>
<g transform="translate(4233.795218241871,0) scale(10.808213218701207,1)">
 <use transform="scale(0.707)" xlink:href="#E1-MJSZ4-E154"></use>
</g>
 <use transform="scale(0.707)" xlink:href="#E1-MJSZ4-E151" x="10477" y="0"></use>
</g>
<g transform="translate(761,1766)">
 <use transform="scale(0.707)" xlink:href="#E1-MJMAIN-44"></use>
 <use transform="scale(0.707)" xlink:href="#E1-MJMAIN-69" x="769" y="0"></use>
 <use transform="scale(0.707)" xlink:href="#E1-MJMAIN-76" x="1052" y="0"></use>
 <use transform="scale(0.707)" xlink:href="#E1-MJMAIN-65" x="1585" y="0"></use>
 <use transform="scale(0.707)" xlink:href="#E1-MJMAIN-72" x="2034" y="0"></use>
 <use transform="scale(0.707)" xlink:href="#E1-MJMAIN-67" x="2431" y="0"></use>
 <use transform="scale(0.707)" xlink:href="#E1-MJMAIN-65" x="2936" y="0"></use>
 <use transform="scale(0.707)" xlink:href="#E1-MJMAIN-6E" x="3385" y="0"></use>
 <use transform="scale(0.707)" xlink:href="#E1-MJMAIN-63" x="3946" y="0"></use>
 <use transform="scale(0.707)" xlink:href="#E1-MJMAIN-65" x="4395" y="0"></use>
 <use transform="scale(0.707)" xlink:href="#E1-MJMAIN-6F" x="5197" y="0"></use>
 <use transform="scale(0.707)" xlink:href="#E1-MJMAIN-66" x="5702" y="0"></use>
 <use transform="scale(0.707)" xlink:href="#E1-MJMAIN-73" x="6367" y="0"></use>
 <use transform="scale(0.707)" xlink:href="#E1-MJMAIN-74" x="6766" y="0"></use>
 <use transform="scale(0.707)" xlink:href="#E1-MJMAIN-72" x="7160" y="0"></use>
 <use transform="scale(0.707)" xlink:href="#E1-MJMAIN-65" x="7557" y="0"></use>
 <use transform="scale(0.707)" xlink:href="#E1-MJMAIN-73" x="8006" y="0"></use>
 <use transform="scale(0.707)" xlink:href="#E1-MJMAIN-73" x="8405" y="0"></use>
</g>
</g>
 <use xlink:href="#E1-MJMAIN-2B" x="16318" y="0"></use>
<g transform="translate(17323,0)">
<g transform="translate(675,0)">
 <use xlink:href="#E1-MJMAINB-67" x="543" y="0"></use>
<g transform="translate(0,-734)">
 <use xlink:href="#E1-MJSZ4-E152" x="19" y="0"></use>
<g transform="translate(390,0)">
 <use xlink:href="#E1-MJSZ4-E151"></use>
 <use xlink:href="#E1-MJSZ4-E150" x="455" y="0"></use>
</g>
 <use xlink:href="#E1-MJSZ4-E153" x="1211" y="0"></use>
</g>
</g>
<g transform="translate(0,-1827)">
<g transform="translate(167,0)">
<g transform="translate(-11,0)">
<g transform="translate(0,204)">
 <use transform="scale(0.707)" xlink:href="#E1-MJMAIN-45"></use>
 <use transform="scale(0.707)" xlink:href="#E1-MJMAIN-78" x="686" y="0"></use>
 <use transform="scale(0.707)" xlink:href="#E1-MJMAIN-74" x="1219" y="0"></use>
 <use transform="scale(0.707)" xlink:href="#E1-MJMAIN-65" x="1613" y="0"></use>
 <use transform="scale(0.707)" xlink:href="#E1-MJMAIN-72" x="2062" y="0"></use>
 <use transform="scale(0.707)" xlink:href="#E1-MJMAIN-6E" x="2458" y="0"></use>
 <use transform="scale(0.707)" xlink:href="#E1-MJMAIN-61" x="3019" y="0"></use>
 <use transform="scale(0.707)" xlink:href="#E1-MJMAIN-6C" x="3524" y="0"></use>
</g>
<g transform="translate(370,-335)">
 <use transform="scale(0.707)" xlink:href="#E1-MJMAIN-73"></use>
 <use transform="scale(0.707)" xlink:href="#E1-MJMAIN-6F" x="399" y="0"></use>
 <use transform="scale(0.707)" xlink:href="#E1-MJMAIN-75" x="904" y="0"></use>
 <use transform="scale(0.707)" xlink:href="#E1-MJMAIN-72" x="1465" y="0"></use>
 <use transform="scale(0.707)" xlink:href="#E1-MJMAIN-63" x="1861" y="0"></use>
 <use transform="scale(0.707)" xlink:href="#E1-MJMAIN-65" x="2310" y="0"></use>
</g>
</g>
</g>
</g>
</g>
 <use xlink:href="#E1-MJMAIN-2E" x="20339" y="0"></use>
</g>
</svg>